<svg xmlns="http://www.w3.org/2000/svg" xmlns:xlink="http://www.w3.org/1999/xlink" width="45" height="45" viewBox="0 0 45 45">
  <defs>
    <clipPath id="clip-path">
      <rect id="Rectangle_5789" data-name="Rectangle 5789" width="45" height="45" transform="translate(442 113)" fill="#fff" stroke="#707070" stroke-width="1"/>
    </clipPath>
  </defs>
  <g id="acquisition_map" transform="translate(-442 -113)" clip-path="url(#clip-path)">
    <g id="Group_13483" data-name="Group 13483" transform="translate(2368.095 -11.58)">
      <path id="Path_28094" data-name="Path 28094" d="M-1891.311,363.365h-5.188a4.329,4.329,0,0,0,.036-.55,4.226,4.226,0,0,0-1.244-3l-7.761-7.762a1.528,1.528,0,0,0-1.08-.447h-11.074v-1.244h-6.042v16.306h6.042v-.976h3.1l5.727,5.725a1.528,1.528,0,0,0,1.08.447h16.405a4.252,4.252,0,0,0,4.248-4.248,4.253,4.253,0,0,0-4.248-4.248Zm0,5.441h-15.773l-5.727-5.725a1.528,1.528,0,0,0-1.08-.447h-3.732v-7.978h10.442l7.314,7.314a1.187,1.187,0,0,1,.35.845,1.184,1.184,0,0,1-.35.844,1.188,1.188,0,0,1-.844.35,1.185,1.185,0,0,1-.844-.35l-4.427-4.428-2.16,2.16,4.427,4.428a4.222,4.222,0,0,0,3,1.245,4.22,4.22,0,0,0,2.249-.644h7.151a1.2,1.2,0,0,1,1.194,1.193,1.2,1.2,0,0,1-1.194,1.193Z" transform="translate(0 -202.281)" fill="#343434"/>
      <path id="Path_28095" data-name="Path 28095" d="M-1676.371,134.863a.556.556,0,0,0-.222-.367l-9.614-7.072a.553.553,0,0,0-.657,0l-9.7,7.1a.563.563,0,0,0-.223.367.562.562,0,0,0,.1.418.559.559,0,0,0,.451.232.551.551,0,0,0,.328-.108l9.368-6.863,9.286,6.83a.553.553,0,0,0,.415.1.554.554,0,0,0,.364-.224.562.562,0,0,0,.1-.418Z" transform="translate(-205.758)" fill="#fd6f02"/>
      <path id="Path_28096" data-name="Path 28096" d="M-1656.783,160.508l-7.536-5.644a.493.493,0,0,0-.592,0l-7.6,5.718a.248.248,0,0,0-.1.2v10.1a.248.248,0,0,0,.248.248h4.552a.249.249,0,0,0,.249-.248v-5.754a.249.249,0,0,1,.248-.248h5.33a.248.248,0,0,1,.248.248v5.754a.248.248,0,0,0,.248.248h4.552a.248.248,0,0,0,.248-.248V160.707a.251.251,0,0,0-.1-.2Z" transform="translate(-227.69 -24.895)" fill="#fd6f02"/>
    </g>
  </g>
</svg>
