<svg xmlns="http://www.w3.org/2000/svg" xmlns:xlink="http://www.w3.org/1999/xlink" width="45" height="45" viewBox="0 0 45 45">
  <defs>
    <clipPath id="clip-path">
      <rect id="Rectangle_5790" data-name="Rectangle 5790" width="45" height="45" transform="translate(442 113)" fill="#fff" stroke="#707070" stroke-width="1"/>
    </clipPath>
  </defs>
  <g id="acquisition_boundary" transform="translate(-442 -113)" clip-path="url(#clip-path)">
    <g id="Group_14494" data-name="Group 14494" transform="translate(-1195.954 -760)">
      <g id="Group_14477" data-name="Group 14477" transform="translate(1641.841 882.535)">
        <path id="Path_28130" data-name="Path 28130" d="M1654.922,886.1h-11.529a.792.792,0,1,1,0-1.583h11.529a.792.792,0,0,1,0,1.583Z" transform="translate(-1642.601 -884.519)" fill="#343434"/>
      </g>
      <g id="Group_14478" data-name="Group 14478" transform="translate(1666.374 882.535)">
        <path id="Path_28131" data-name="Path 28131" d="M1684.916,886.1h-10.53a.792.792,0,0,1,0-1.583h10.53a.792.792,0,1,1,0,1.583Z" transform="translate(-1673.595 -884.519)" fill="#343434"/>
      </g>
      <g id="Group_14479" data-name="Group 14479" transform="translate(1666.374 885.199)">
        <path id="Path_28132" data-name="Path 28132" d="M1688.6,889.468h-14.209a.792.792,0,0,1,0-1.583H1688.6a.792.792,0,1,1,0,1.583Z" transform="translate(-1673.595 -887.885)" fill="#343434"/>
      </g>
      <g id="Group_14480" data-name="Group 14480" transform="translate(1638.954 885.199)">
        <path id="Path_28133" data-name="Path 28133" d="M1654.288,889.468h-14.542a.792.792,0,0,1,0-1.583h14.542a.792.792,0,0,1,0,1.583Z" transform="translate(-1638.954 -887.885)" fill="#343434"/>
      </g>
      <g id="Group_14481" data-name="Group 14481" transform="translate(1642.284 885.309)">
        <path id="Path_28134" data-name="Path 28134" d="M1643.953,897.267a.791.791,0,0,1-.792-.792v-7.66a.792.792,0,1,1,1.583,0v7.66A.791.791,0,0,1,1643.953,897.267Z" transform="translate(-1643.161 -888.024)" fill="#343434"/>
      </g>
      <g id="Group_14482" data-name="Group 14482" transform="translate(1676.92 886.082)">
        <path id="Path_28135" data-name="Path 28135" d="M1687.709,897.582a.791.791,0,0,1-.792-.792v-7a.792.792,0,1,1,1.583,0v7A.791.791,0,0,1,1687.709,897.582Z" transform="translate(-1686.918 -889)" fill="#343434"/>
      </g>
      <g id="Group_14483" data-name="Group 14483" transform="translate(1670.607 889.765)">
        <rect id="Rectangle_5814" data-name="Rectangle 5814" width="3.552" height="3.552" rx="0.71" fill="#343434"/>
      </g>
      <g id="Group_14484" data-name="Group 14484" transform="translate(1646.85 889.765)">
        <rect id="Rectangle_5815" data-name="Rectangle 5815" width="3.552" height="3.552" rx="0.503" fill="#343434"/>
      </g>
      <g id="Group_14485" data-name="Group 14485" transform="translate(1641.855 896.536)">
        <rect id="Rectangle_5816" data-name="Rectangle 5816" width="5.773" height="12.433" rx="1.102" fill="#f07a1a"/>
      </g>
      <g id="Group_14486" data-name="Group 14486" transform="translate(1672.161 897.163)">
        <rect id="Rectangle_5817" data-name="Rectangle 5817" width="5.773" height="13.027" rx="1.01" fill="#f07a1a"/>
      </g>
      <g id="Group_14487" data-name="Group 14487" transform="translate(1646.906 896.965)">
        <rect id="Rectangle_5818" data-name="Rectangle 5818" width="9.824" height="1.583" fill="#f07a1a"/>
      </g>
      <g id="Group_14488" data-name="Group 14488" transform="translate(1646.9 906.662)">
        <path id="Path_28136" data-name="Path 28136" d="M1659.164,923.01h-.011a2.035,2.035,0,0,1-1.451-.613l-5.561-5.665a.432.432,0,0,0-.3-.127l-2.849-.021L1649,915l2.847.021a2.022,2.022,0,0,1,1.419.6l5.561,5.664a.46.46,0,0,0,.329.139h0a.46.46,0,0,0,.328-.137l.212-.212a.465.465,0,0,0,0-.658l1.119-1.119a2.048,2.048,0,0,1,0,2.9l-.212.212A2.032,2.032,0,0,1,1659.164,923.01Z" transform="translate(-1648.992 -915)" fill="#f07a1a"/>
      </g>
      <g id="Group_14489" data-name="Group 14489" transform="translate(1654.734 908.069)">
        <path id="Path_28137" data-name="Path 28137" d="M1665.4,923.374a2.219,2.219,0,0,1-1.557-.632l-4.95-4.831,1.105-1.134,4.95,4.832a.647.647,0,0,0,.884.017l.134-.12a.647.647,0,0,0,.024-.938l1.119-1.119a2.228,2.228,0,0,1-.083,3.232l-.134.121A2.224,2.224,0,0,1,1665.4,923.374Z" transform="translate(-1658.89 -916.778)" fill="#f07a1a"/>
      </g>
      <g id="Group_14490" data-name="Group 14490" transform="translate(1658.28 907.205)">
        <path id="Path_28138" data-name="Path 28138" d="M1670.138,922.656a2.2,2.2,0,0,1-1.563-.646l-5.205-5.205,1.119-1.119,5.205,5.205a.627.627,0,1,0,.886-.887l-.217-.218,1.119-1.119.218.218a2.208,2.208,0,0,1-1.563,3.771Z" transform="translate(-1663.369 -915.686)" fill="#f07a1a"/>
      </g>
      <g id="Group_14491" data-name="Group 14491" transform="translate(1652.66 893.905)">
        <path id="Path_28139" data-name="Path 28139" d="M1672.106,918.5a2.433,2.433,0,0,1-1.725-.713l-5.162-5.162,1.119-1.119,5.162,5.162a.879.879,0,0,0,1.212,0,.858.858,0,0,0,0-1.213l-9.032-9.032-.814.542a3.907,3.907,0,0,1-1.95.653c-1.43.081-3.33-.08-4.338-1.264a1.3,1.3,0,0,1-.3-.963,1.265,1.265,0,0,1,.474-.875l5.952-4.767a2.98,2.98,0,0,1,1.193-.577,9.727,9.727,0,0,1,2.641-.272,4.1,4.1,0,0,1,2.165.77,16.39,16.39,0,0,0,7.152,2.949l.708.074V914.55h-1.533a.172.172,0,0,0-.116.044l-.561.5a2.44,2.44,0,0,1-2.244,3.4Zm-8.225-14.115,9.477,9.478.5-.447a1.757,1.757,0,0,1,1.12-.445v-8.874a18.192,18.192,0,0,1-7.2-3.142,2.521,2.521,0,0,0-1.33-.474,8.573,8.573,0,0,0-2.2.234,1.377,1.377,0,0,0-.558.269l-5.68,4.549a4.632,4.632,0,0,0,2.819.5,2.316,2.316,0,0,0,1.159-.389Z" transform="translate(-1656.27 -898.884)" fill="#f07a1a"/>
      </g>
      <g id="Group_14492" data-name="Group 14492" transform="translate(1654.177 880.662)">
        <path id="Path_28140" data-name="Path 28140" d="M1658.186,882.153V893.92h12.877V882.153Zm5.058,10.546a.4.4,0,0,1-.792,0v-8.984a.4.4,0,0,1,.792,0Zm3.775-.1a.4.4,0,0,1-.792,0v-8.984a.4.4,0,0,1,.792,0Z" transform="translate(-1658.186 -882.153)" fill="#343434"/>
      </g>
      <g id="Group_14493" data-name="Group 14493" transform="translate(1655.62 875)">
        <path id="Path_28141" data-name="Path 28141" d="M1664.894,875l-4.885,1.9v2.759h1.576v-1.5h6.605v1.5h1.588v-2.331Z" transform="translate(-1660.009 -875)" fill="#f07a1a"/>
      </g>
    </g>
  </g>
</svg>
