<svg xmlns="http://www.w3.org/2000/svg" xmlns:xlink="http://www.w3.org/1999/xlink" width="45" height="45" viewBox="0 0 45 45">
  <defs>
    <clipPath id="clip-path">
      <rect id="Rectangle_5680" data-name="Rectangle 5680" width="45" height="45" transform="translate(442 113)" fill="#fff" stroke="#707070" stroke-width="1"/>
    </clipPath>
  </defs>
  <g id="block" transform="translate(-442 -113)" clip-path="url(#clip-path)">
    <g id="Group_13255" data-name="Group 13255" transform="translate(296.668 70.152)">
      <path id="Path_27939" data-name="Path 27939" d="M168.3,56.795q7.758,0,15.515-.01c.363,0,.428.1.426.44q-.02,4.7,0,9.4c0,.322-.065.423-.409.422q-15.553-.015-31.109,0c-.281,0-.387-.046-.386-.363q.02-4.778,0-9.555c0-.364.176-.33.411-.33Q160.52,56.8,168.3,56.795Zm-11.6,1.06a1.477,1.477,0,0,0,.11.155q3.9,3.9,7.807,7.8c.073.073.139.164.261.164h2.774a.824.824,0,0,0-.078-.147q-3.913-3.917-7.829-7.834a.408.408,0,0,0-.312-.14C158.544,57.857,157.654,57.855,156.7,57.855Zm20.262,8.12a1.554,1.554,0,0,0-.111-.162q-3.881-3.9-7.762-7.79a.412.412,0,0,0-.3-.169c-.913,0-1.826,0-2.771,0a.643.643,0,0,0,.07.137q3.91,3.919,7.825,7.839a.411.411,0,0,0,.311.145C175.113,65.973,176,65.975,176.963,65.975Zm-1.625-8.121,7.847,7.813c0-.869,0-1.783,0-2.7,0-.14-.093-.213-.176-.3l-4.634-4.635a.489.489,0,0,0-.372-.19C177.126,57.859,176.248,57.854,175.338,57.854ZM153.384,61a12.215,12.215,0,0,1-.012,1.6,2.16,2.16,0,0,0,.891,2.17c.449.347.763.941,1.253,1.145a4.812,4.812,0,0,0,1.7.064c.374,0,.748,0,1.155,0Z" fill="#fd6f02"/>
      <path id="Path_27940" data-name="Path 27940" d="M168.285,77.115q-7.76,0-15.52.01c-.362,0-.433-.1-.431-.442q.022-3.639,0-7.279c0-.3.077-.37.374-.37q15.579.012,31.159,0c.3,0,.372.076.371.373q-.02,3.639,0,7.279c0,.348-.077.439-.434.438Q176.044,77.1,168.285,77.115Zm.647-7.032a.683.683,0,0,0,.059.114q2.87,2.873,5.74,5.742c.065.065.12.142.229.142.924,0,1.849,0,2.782,0-.011-.059-.009-.075-.016-.082q-2.88-2.888-5.761-5.776a.451.451,0,0,0-.353-.141C170.734,70.086,169.855,70.083,168.932,70.083Zm-9.246,0-.072.112a3.651,3.651,0,0,1,.344.27c1.622,1.617,3.266,3.212,4.845,4.869a2.079,2.079,0,0,0,1.866.757c.583-.061,1.178-.012,1.851-.012-2.01-2.01-3.948-3.947-5.884-5.887a.372.372,0,0,0-.285-.111C161.463,70.085,160.574,70.084,159.686,70.084Zm-.559,6-5.741-5.7c0,.846,0,1.734,0,2.622a.5.5,0,0,0,.205.367q1.264,1.275,2.531,2.548a.444.444,0,0,0,.343.162C157.349,76.078,158.236,76.081,159.127,76.081Zm19.171-6,4.869,4.871c0-.854,0-1.756,0-2.658A.41.41,0,0,0,183,72c-.584-.584-1.171-1.166-1.752-1.754a.488.488,0,0,0-.385-.161C180,70.088,179.132,70.084,178.3,70.084Z" fill="#343434"/>
      <path id="Path_27941" data-name="Path 27941" d="M158.1,85.841c-1.012,0-2.024-.007-3.036.006-.251,0-.307-.064-.343-.323a1.278,1.278,0,0,1,.88-1.576c.217-.08.384-.3.651-.252s.3-.085.3-.316c-.009-1.611.006-3.222-.013-4.833,0-.338.094-.423.42-.414.8.024,1.6.019,2.4,0,.265-.006.336.073.334.335-.011,1.6,0,3.2-.011,4.793,0,.295.023.417.386.453a2.854,2.854,0,0,1,1.394.79c.114.091.04.429.041.653,0,.682,0,.682-.683.682Z" fill="#343434"/>
      <path id="Path_27942" data-name="Path 27942" d="M178.437,85.841c-1.013,0-2.026-.009-3.039.006-.258,0-.3-.072-.34-.325a1.294,1.294,0,0,1,.878-1.581c.243-.093.442-.291.735-.249.267.037.215-.168.215-.318,0-1.586.013-3.173-.008-4.759-.005-.377.078-.5.476-.485.771.035,1.546.022,2.318.005.277-.006.362.072.36.354-.013,1.6,0,3.2-.011,4.8,0,.271.019.4.368.427.542.043.924.489,1.388.737a4.984,4.984,0,0,1,.045,1.339c-.087.086-.2.048-.306.048Q179.977,85.844,178.437,85.841Z" fill="#343434"/>
      <path id="Path_27943" data-name="Path 27943" d="M178.407,55.764c-1.266,0-2.532-.012-3.8.007-.355.005-.363-.124-.268-.4a1.288,1.288,0,0,1,1.2-.889,9.475,9.475,0,0,1,1.039,0c.318.024.26-.179.257-.357s.07-.394-.25-.366c-.212.019-.428-.012-.639.008-.295.028-.3-.116-.24-.336a.785.785,0,0,1,.612-.617c.2-.042.219-.131.217-.295q-.01-.74,0-1.479a1.921,1.921,0,1,1,3.839,0c.007.493.005.987,0,1.48,0,.163.013.272.22.293a.674.674,0,0,1,.435.264.626.626,0,0,1,.193.618c-.071.163-.311.052-.474.07-.1.011-.213,0-.32,0-.383,0-.536.235-.41.606.052.155.168.1.26.1.347.008.693,0,1.04.006a1.294,1.294,0,0,1,1.214.876c.1.289.083.417-.287.411C180.967,55.751,179.687,55.764,178.407,55.764Z" fill="#343434"/>
      <path id="Path_27944" data-name="Path 27944" d="M158.112,55.763c-1.279,0-2.557-.008-3.836.007-.306,0-.365-.09-.277-.365a1.3,1.3,0,0,1,1.222-.919c.346-.011.694-.021,1.039,0,.318.021.251-.186.254-.362s.052-.388-.259-.359c-.225.02-.454-.008-.679.007-.241.016-.263-.1-.215-.29a.783.783,0,0,1,.583-.646c.25-.052.27-.173.266-.377q-.015-.738,0-1.478a1.918,1.918,0,1,1,3.836,0c.008.506,0,1.012,0,1.518,0,.167-.012.3.229.32a.664.664,0,0,1,.456.3.627.627,0,0,1,.168.553c-.072.2-.3.068-.458.093a2.12,2.12,0,0,1-.319,0c-.433,0-.539.153-.438.578.038.161.139.133.239.133.36,0,.719-.007,1.079,0a1.286,1.286,0,0,1,1.225.963c.069.245.034.323-.24.32C160.7,55.756,159.4,55.763,158.112,55.763Z" fill="#343434"/>
      <path id="Path_27945" data-name="Path 27945" d="M154.484,51.044c.266,0,.532.017.8,0s.356.055.369.343c.018.369-.094.476-.458.454-.516-.033-1.035-.009-1.553-.008-.266,0-.5-.075-.5-.381-.007-.329.226-.412.514-.405S154.205,51.044,154.484,51.044Z" fill="#343434"/>
      <path id="Path_27946" data-name="Path 27946" d="M174.826,51.828c-.306,0-.612.005-.918,0-.255-.007-.451-.109-.444-.4s.2-.383.457-.383c.6,0,1.2.014,1.8-.006.361-.013.241.233.247.4s.09.42-.26.392C175.413,51.809,175.119,51.828,174.826,51.828Z" fill="#343434"/>
      <path id="Path_27947" data-name="Path 27947" d="M182.112,51.8h-.719c-.432,0-.579-.219-.454-.645.038-.131.123-.119.212-.119.639,0,1.278,0,1.916,0a.378.378,0,1,1,0,.755c-.319.01-.639,0-.958,0Z" fill="#343434"/>
      <path id="Path_27948" data-name="Path 27948" d="M156.539,48.918c-.173.139-.33.283-.505.4s-.227-.082-.308-.159c-.4-.386-.79-.786-1.187-1.177-.194-.191-.291-.406-.078-.622s.431-.123.622.069c.412.415.827.826,1.239,1.24C156.376,48.725,156.424,48.786,156.539,48.918Z" fill="#343434"/>
      <path id="Path_27949" data-name="Path 27949" d="M176.856,48.91a5.61,5.61,0,0,1-.5.413c-.166.108-.225-.087-.307-.166-.4-.388-.79-.788-1.187-1.18-.195-.193-.284-.407-.068-.622.2-.2.412-.129.6.053q.636.633,1.269,1.268C176.711,48.729,176.756,48.792,176.856,48.91Z" fill="#343434"/>
      <path id="Path_27950" data-name="Path 27950" d="M157.731,47.2c0-.306,0-.612,0-.918,0-.244.116-.424.371-.433.279-.011.4.176.408.436.006.612,0,1.224,0,1.837,0,.363-.275.2-.436.214s-.365.082-.35-.218S157.731,47.505,157.731,47.2Z" fill="#343434"/>
      <path id="Path_27951" data-name="Path 27951" d="M178.842,47.168a6.829,6.829,0,0,0,.006.8c.039.336-.113.381-.4.389-.32.009-.408-.091-.393-.4.025-.531.009-1.064.006-1.6,0-.268.078-.5.381-.505.327-.006.409.234.4.519C178.839,46.635,178.842,46.9,178.842,47.168Z" fill="#343434"/>
      <path id="Path_27952" data-name="Path 27952" d="M180.583,49.433a3.66,3.66,0,0,1-.437-.495c-.092-.152.1-.22.187-.306.378-.394.769-.776,1.152-1.166.189-.193.4-.3.622-.082s.117.434-.074.625c-.415.414-.828.831-1.243,1.245C180.737,49.308,180.675,49.354,180.583,49.433Z" fill="#343434"/>
      <path id="Path_27953" data-name="Path 27953" d="M161.766,51.035h.917c.252,0,.412.116.416.376s-.169.378-.413.38c-.624.006-1.249,0-1.873.006-.316.006-.208-.224-.2-.361s-.151-.406.194-.4C161.128,51.038,161.447,51.035,161.766,51.035Z" fill="#343434"/>
      <path id="Path_27954" data-name="Path 27954" d="M161.857,47.656a.531.531,0,0,1-.18.374c-.406.405-.821.8-1.208,1.224-.218.236-.322.052-.433-.081s-.392-.207-.125-.46c.436-.412.851-.845,1.277-1.269a.376.376,0,0,1,.435-.1A.392.392,0,0,1,161.857,47.656Z" fill="#343434"/>
    </g>
  </g>
</svg>
