<svg xmlns="http://www.w3.org/2000/svg" xmlns:xlink="http://www.w3.org/1999/xlink" width="45" height="45" viewBox="0 0 45 45">
  <defs>
    <clipPath id="clip-path">
      <rect id="Rectangle_5786" data-name="Rectangle 5786" width="45" height="45" transform="translate(442 113)" fill="#fff" stroke="#707070" stroke-width="1"/>
    </clipPath>
  </defs>
  <g id="boundary_CTS" transform="translate(-442 -113)" clip-path="url(#clip-path)">
    <g id="Group_13476" data-name="Group 13476" transform="translate(1672.04 -1677.212)">
      <path id="Path_28083" data-name="Path 28083" d="M-502.886,1780.474" transform="translate(-666.204)"/>
      <path id="Path_28084" data-name="Path 28084" d="M-1169.193,1972.544h6.443a.458.458,0,0,1,.458.458v29.543a.458.458,0,0,1-.458.458h-6.443a.458.458,0,0,1-.458-.458V1973a.458.458,0,0,1,.458-.458Zm-11.537,12.739a6.423,6.423,0,0,1,1.24.12v-16.608a.458.458,0,0,1,.458-.458h6.443a.458.458,0,0,1,.458.458v33.75a.458.458,0,0,1-.458.458h-6.443a.458.458,0,0,1-.458-.458v-4.566a6.423,6.423,0,0,1-1.24.12,6.424,6.424,0,0,1-1.24-.12v4.566a.458.458,0,0,1-.458.458h-6.443a.458.458,0,0,1-.458-.458v-26.2a.458.458,0,0,1,.458-.458h6.443a.458.458,0,0,1,.458.458v9.061A6.424,6.424,0,0,1-1180.73,1985.282Zm3.883,2.524a5.477,5.477,0,0,0-3.883-1.609,5.476,5.476,0,0,0-3.883,1.609,5.476,5.476,0,0,0-1.609,3.884,5.476,5.476,0,0,0,1.609,3.884,5.476,5.476,0,0,0,3.883,1.609,5.476,5.476,0,0,0,3.883-1.609,5.476,5.476,0,0,0,1.609-3.884A5.476,5.476,0,0,0-1176.846,1987.807Zm-21.864-14.22h6.443a.458.458,0,0,1,.458.458v28.5a.458.458,0,0,1-.458.458h-6.443a.458.458,0,0,1-.458-.458v-28.5A.458.458,0,0,1-1198.71,1973.586Z" transform="translate(-26.829 -172.508)" fill="#343434"/>
      <g id="Group_13473" data-name="Group 13473" transform="translate(-1213.444 1813.255)">
        <path id="Path_28085" data-name="Path 28085" d="M-1039.616,2193.476a5.961,5.961,0,0,1-5.955-5.955,5.961,5.961,0,0,1,5.955-5.955,5.961,5.961,0,0,1,5.955,5.955A5.961,5.961,0,0,1-1039.616,2193.476Zm0-10.929a4.98,4.98,0,0,0-4.974,4.974,4.979,4.979,0,0,0,4.974,4.974,4.979,4.979,0,0,0,4.974-4.974A4.98,4.98,0,0,0-1039.616,2182.548Z" transform="translate(1045.571 -2181.567)" fill="#f07a1a"/>
      </g>
      <g id="Group_13475" data-name="Group 13475" transform="translate(-1210.555 1815.864)">
        <path id="Path_28086" data-name="Path 28086" d="M-995.461,2213.735a.458.458,0,0,1,.624-.167.457.457,0,0,1,.167.624l-3.366,5.776a.458.458,0,0,1-.624.167.458.458,0,0,1-.167-.624Z" transform="translate(999.814 -2213.506)" fill="#f07a1a"/>
        <path id="Path_28087" data-name="Path 28087" d="M-1007.847,2213.911a1.388,1.388,0,0,0-.994-.422h0a1.372,1.372,0,0,0-.978.407,1.38,1.38,0,0,0-.4.976,1.384,1.384,0,0,0,.407.978,1.382,1.382,0,0,0,.976.405,1.373,1.373,0,0,0,.979-.407,1.381,1.381,0,0,0,.4-.976A1.392,1.392,0,0,0-1007.847,2213.911Zm-.663,1.292a.468.468,0,0,1-.331.137.469.469,0,0,1-.331-.136.47.47,0,0,1-.136-.331.463.463,0,0,1,.137-.331.469.469,0,0,1,.33-.137.469.469,0,0,1,.331.137h0a.476.476,0,0,1,.137.331A.46.46,0,0,1-1008.51,2215.2Z" transform="translate(1010.223 -2213.489)" fill="#f07a1a"/>
        <g id="Group_13474" data-name="Group 13474" transform="translate(3.365 3.926)">
          <path id="Path_28088" data-name="Path 28088" d="M-966.69,2261.929a1.383,1.383,0,0,0-.976-.4,1.373,1.373,0,0,0-.978.407,1.38,1.38,0,0,0-.4.976,1.4,1.4,0,0,0,.389.961,1.39,1.39,0,0,0,.994.422,1.384,1.384,0,0,0,.978-.407,1.382,1.382,0,0,0,.4-.976A1.384,1.384,0,0,0-966.69,2261.929Zm-.644,1.309a.469.469,0,0,1-.331.136.478.478,0,0,1-.34-.145.471.471,0,0,1-.128-.322.462.462,0,0,1,.137-.33.468.468,0,0,1,.331-.137.47.47,0,0,1,.331.135h0a.469.469,0,0,1,.136.331A.47.47,0,0,1-967.334,2263.238Z" transform="translate(969.049 -2261.524)" fill="#f07a1a"/>
          <path id="Path_28089" data-name="Path 28089" d="M-952.124,2261.524Z" transform="translate(953.507 -2261.524)" fill="#f07a1a"/>
        </g>
      </g>
      <rect id="Rectangle_5787" data-name="Rectangle 5787" width="41.193" height="2.686" rx="1.343" transform="translate(-1228.385 1832.526)" fill="#f07a1a"/>
    </g>
  </g>
</svg>
