<svg xmlns="http://www.w3.org/2000/svg" xmlns:xlink="http://www.w3.org/1999/xlink" width="45" height="45" viewBox="0 0 45 45">
  <defs>
    <clipPath id="clip-path">
      <rect id="Rectangle_5656" data-name="Rectangle 5656" width="45" height="45" transform="translate(442 113)" fill="#fff" stroke="#707070" stroke-width="1"/>
    </clipPath>
  </defs>
  <g id="building_footprint" transform="translate(-442 -113)" clip-path="url(#clip-path)">
    <g id="Group_13236" data-name="Group 13236" transform="translate(126.514 63.358)">
      <path id="Path_27855" data-name="Path 27855" d="M353.336,57.111l-.91-1.529V53.671l.91-1.529H333.194l-.911,1.529v1.911l.911,1.529Z" fill="#fd6f02"/>
      <path id="Path_27856" data-name="Path 27856" d="M355.613,55.806l1.718-.88a.337.337,0,0,0,0-.6l-1.717-.879c-.01.021-.021.041-.033.061l-.46.774v.689l.46.774h0a.443.443,0,0,1,.032.061Z" fill="#fd6f02"/>
      <path id="Path_27857" data-name="Path 27857" d="M352.672,60.366h-24.5v-1.1a4.842,4.842,0,1,0-9.685,0V81.361a4.845,4.845,0,0,0,4.842,4.843h24.5v1.1a4.842,4.842,0,0,0,9.685,0V65.209a4.845,4.845,0,0,0-4.842-4.843ZM354.879,85.9a2.342,2.342,0,0,0-2.342-2.342H323.4a2.251,2.251,0,0,1-2.259-1.914,2.205,2.205,0,0,1,2.183-2.489h4.843V63.007h24.265a2.441,2.441,0,0,1,2.443,2.443Z" fill="#343434"/>
      <path id="Path_27858" data-name="Path 27858" d="M338.711,65.16h9.731v9.731h-9.731Z" fill="#fd6f02"/>
      <path id="Path_27859" data-name="Path 27859" d="M347.8,77.563h-1a.642.642,0,0,0-.641.641v.977h-2.427V78.2a.642.642,0,0,0-.642-.641h-1a.643.643,0,0,0-.644.641v.977h-2.425V78.2a.642.642,0,0,0-.641-.641h-1.005a.642.642,0,0,0-.641.641v.977h-2.308v-2.33h.974a.64.64,0,0,0,.641-.641v-1a.64.64,0,0,0-.641-.641h-.974V72.14h.974a.642.642,0,0,0,.641-.641v-1a.642.642,0,0,0-.641-.641h-.974V67.429h.974a.642.642,0,0,0,.641-.642v-1a.644.644,0,0,0-.641-.645h-2.58a.645.645,0,0,0-.642.645V80.305a1.125,1.125,0,0,0,1.124,1.123h14.5a.642.642,0,0,0,.641-.644V78.2a.64.64,0,0,0-.641-.641Z" fill="#fd6f02"/>
    </g>
  </g>
</svg>
