<svg xmlns="http://www.w3.org/2000/svg" xmlns:xlink="http://www.w3.org/1999/xlink" width="45" height="45" viewBox="0 0 45 45">
  <defs>
    <clipPath id="clip-path">
      <rect id="Rectangle_5687" data-name="Rectangle 5687" width="45" height="45" transform="translate(442 113)" fill="#fff" stroke="#707070" stroke-width="1"/>
    </clipPath>
  </defs>
  <g id="bus_stop" transform="translate(-442 -113)" clip-path="url(#clip-path)">
    <g id="Group_13258" data-name="Group 13258" transform="translate(445 115)">
      <path id="Path_27967" data-name="Path 27967" d="M28.573,47.461V51.9a1.116,1.116,0,0,0,1.111,1.112H53.017V79.683H49.684l.6-8.889h0a1.715,1.715,0,1,0-3.422-.234.765.765,0,0,0,0,.234l.6,8.889H45.24a1.115,1.115,0,0,0-1.112,1.111v4.444a1.115,1.115,0,0,0,1.112,1.111h8.888a1.115,1.115,0,0,0,1.112-1.111V47.46a1.116,1.116,0,0,0-1.112-1.111H29.684a1.115,1.115,0,0,0-1.111,1.111Z" transform="translate(-15.24 -46.349)" fill="#fd6f02"/>
      <path id="Path_27968" data-name="Path 27968" d="M47.463,55.239H63.018a5.557,5.557,0,0,1,5.555,5.555v20A1.114,1.114,0,0,1,67.462,81.9H66.351v3.334h0A1.115,1.115,0,0,1,65.24,86.35H60.8a1.114,1.114,0,0,1-1.111-1.111V81.9H50.8v3.334h0a1.114,1.114,0,0,1-1.111,1.111H45.24a1.114,1.114,0,0,1-1.111-1.111V81.9H43.018a1.114,1.114,0,0,1-1.111-1.111v-20a5.557,5.557,0,0,1,5.555-5.555Zm15,22.222a1.663,1.663,0,1,0-1.18-.487,1.664,1.664,0,0,0,1.18.487Zm-6.111-7.777h10V63.017h-10Zm-8.334,7.777a1.663,1.663,0,1,0-1.179-.487,1.667,1.667,0,0,0,1.179.487Zm-3.889-7.777h10V63.017h-10Z" transform="translate(-41.907 -46.349)" fill="#343434"/>
      <path id="Path_27969" data-name="Path 27969" d="M33.573,65.794a1.667,1.667,0,1,0,1.667-1.666,1.667,1.667,0,0,0-1.667,1.666" transform="translate(-1.907 -46.349)" fill="#fd6f02"/>
    </g>
  </g>
</svg>
