<svg xmlns="http://www.w3.org/2000/svg" xmlns:xlink="http://www.w3.org/1999/xlink" width="45" height="45" viewBox="0 0 45 45">
  <defs>
    <clipPath id="clip-path">
      <rect id="Rectangle_5673" data-name="Rectangle 5673" width="45" height="45" transform="translate(442 113)" fill="#fff" stroke="#707070" stroke-width="1"/>
    </clipPath>
  </defs>
  <g id="census_gut" transform="translate(-442 -113)" clip-path="url(#clip-path)">
    <g id="Group_13248" data-name="Group 13248" transform="translate(187.994 64.451)">
      <path id="Path_27919" data-name="Path 27919" d="M278.772,67.671a1.947,1.947,0,1,1-1.947-1.946,1.947,1.947,0,0,1,1.947,1.946" fill="#fd6f02"/>
      <path id="Path_27920" data-name="Path 27920" d="M284.285,67.022a1.946,1.946,0,1,1-1.946-1.946,1.946,1.946,0,0,1,1.946,1.946" fill="#fd6f02"/>
      <path id="Path_27921" data-name="Path 27921" d="M273.258,67.022a1.946,1.946,0,1,1-1.946-1.946,1.946,1.946,0,0,1,1.946,1.946" fill="#fd6f02"/>
      <path id="Path_27922" data-name="Path 27922" d="M257.721,70.808l3.258-2.147h0a15.884,15.884,0,0,0,6.053,10.815l-.926,1.605a1.295,1.295,0,0,0-1.432.606l-3.244,5.618a1.3,1.3,0,0,0,.475,1.773l2.247,1.3h0a1.3,1.3,0,0,0,1.773-.475l3.243-5.618a1.291,1.291,0,0,0-.185-1.536l.871-1.508h0A15.883,15.883,0,0,0,289.22,57.063l4.349-3.375,1.5,2.051,1.642-5.19-5.19.331,1.285,1.76-4.432,3.44a15.883,15.883,0,0,0-27.488,10.855c0,.078,0,.154.006.232l-3.883,2.558Zm8.944-9.712a11.639,11.639,0,0,1,18.355-2.417l-2.915,2.263h0a1.606,1.606,0,0,0-2.393.291L274.2,60.219a1.621,1.621,0,0,0-3.21.292l-5.551,3.658h0a11.675,11.675,0,0,1,1.227-3.073Zm-1.509,4.813,6.354-4.187a1.607,1.607,0,0,0,2.407-.236l5.543,1.019h0a1.621,1.621,0,0,0,3.2-.348v-.006l3.228-2.5h0a11.671,11.671,0,1,1-20.734,6.262Z" fill="#343434"/>
      <path id="Path_27923" data-name="Path 27923" d="M271.587,75.923A10.359,10.359,0,0,0,285.4,72.689V70.53a1.3,1.3,0,0,0-1.3-1.3h-3.243a1.288,1.288,0,0,1-2.271.649h-3.243a1.288,1.288,0,0,0-.991.469,1.294,1.294,0,0,0-1.28-1.118h-3.243a1.3,1.3,0,0,0-1.3,1.3v2.724a10.367,10.367,0,0,0,3.052,2.669Z" fill="#fd6f02"/>
    </g>
  </g>
</svg>
