<svg xmlns="http://www.w3.org/2000/svg" xmlns:xlink="http://www.w3.org/1999/xlink" width="45" height="45" viewBox="0 0 45 45">
  <defs>
    <clipPath id="clip-path">
      <rect id="Rectangle_5754" data-name="Rectangle 5754" width="45" height="45" transform="translate(442 113)" fill="#fff" stroke="#707070" stroke-width="1"/>
    </clipPath>
  </defs>
  <g id="contours" transform="translate(-442 -113)" clip-path="url(#clip-path)">
    <g id="noun-contour-4808140" transform="translate(374 115)">
      <path id="Path_28052" data-name="Path 28052" d="M125.635,62.738h4.691a.552.552,0,0,1,.514.514v4.691a.514.514,0,0,1-.514.514h-4.691a.552.552,0,0,1-.514-.514V63.252A.514.514,0,0,1,125.635,62.738Z" transform="translate(-51.613 -58.418)" fill="#fd6f02"/>
      <path id="Path_28053" data-name="Path 28053" d="M125.634,155.82h9.8a.514.514,0,0,0,.514-.514.524.524,0,0,0-.514-.514h-9.8a.514.514,0,0,0-.514.514.5.5,0,0,0,.514.514Z" transform="translate(-51.612 -140.155)" fill="#fd6f02"/>
      <path id="Path_28055" data-name="Path 28055" d="M196.328,68.457h4.7a.514.514,0,0,0,.514-.514V63.251a.514.514,0,0,0-.514-.514h-4.7a.514.514,0,0,0-.514.514v4.659a.514.514,0,0,0,.514.546Z" transform="translate(-113.652 -58.418)" fill="#fd6f02"/>
      <path id="Path_28057" data-name="Path 28057" d="M125.446,186.049h10.177c.177,0,.322-.582.326-1.311s-.147-1.326-.326-1.341H125.446c-.18,0-.326.6-.326,1.341a4.117,4.117,0,0,0,.1.937C125.278,185.922,125.361,186.057,125.446,186.049Z" transform="translate(-51.613 -164.307)" fill="#fd6f02"/>
      <path id="Path_28059" data-name="Path 28059" d="M110.359,0H70.641A.641.641,0,0,0,70,.641V40.359a.641.641,0,0,0,.641.641h39.719a.641.641,0,0,0,.641-.641V.641A.641.641,0,0,0,110.359,0ZM71.6,1.614H95.875C93.953,18.662,80.1,30.481,71.6,36.208Zm37.8,20.75c-7.322,8.521-18.11,13.069-27.316,15.49-2.351.641-4.587,1.083-6.637,1.454H71.6V38.93c10.423-1.422,27.854-5.663,37.8-18.284Zm0-15.958c-9.244,18.962-27.81,28.136-37.8,31.858V37.2C82,33.255,100.884,23.613,109.4,3.677Z" fill="#343434"/>
    </g>
  </g>
</svg>
