<svg xmlns="http://www.w3.org/2000/svg" xmlns:xlink="http://www.w3.org/1999/xlink" width="45" height="45" viewBox="0 0 45 45">
  <defs>
    <clipPath id="clip-path">
      <rect id="Rectangle_5784" data-name="Rectangle 5784" width="45" height="45" transform="translate(442 113)" fill="#fff" stroke="#707070" stroke-width="1"/>
    </clipPath>
  </defs>
  <g id="conveyance_sale" transform="translate(-442 -113)" clip-path="url(#clip-path)">
    <g id="Group_13471" data-name="Group 13471" transform="translate(904.184 -935.733)">
      <path id="Path_28073" data-name="Path 28073" d="M-428.21,1051.211v40.041h1.741v-40.041a.475.475,0,0,0-.088-.284l-.788-1.194-.783,1.194a.472.472,0,0,0-.088.284Z" transform="translate(-27.038)" fill="#343434"/>
      <path id="Path_28074" data-name="Path 28074" d="M-375.724,1080.411v-.258a.581.581,0,0,0-.581-.58h-22.117V1081h22.112a.581.581,0,0,0,.581-.581Z" transform="translate(-53.918 -26.922)" fill="#343434"/>
      <path id="Path_28075" data-name="Path 28075" d="M-386.569,1106.069V1107h-.6a1.745,1.745,0,0,0-1.747,1.747v9.72a1.748,1.748,0,0,0,1.747,1.747h17.337a1.751,1.751,0,0,0,1.747-1.747v-9.72a1.748,1.748,0,0,0-1.747-1.747h-.6v-.931H-371.6V1107h-13.81v-.931h-1.161Zm12.37,9.983a1.857,1.857,0,0,1-1.851,1.856,1.862,1.862,0,0,1-1.856-1.856,1.858,1.858,0,0,1,1.856-1.856A1.853,1.853,0,0,1-374.2,1116.052Zm-1.123-5.619a.592.592,0,0,1,0,.827l-5.525,5.52a.563.563,0,0,1-.405.17.6.6,0,0,1-.416-.17.585.585,0,0,1,0-.821l5.52-5.525a.592.592,0,0,1,.827,0Zm-5.618-1.123a1.852,1.852,0,0,1,1.851,1.851,1.857,1.857,0,0,1-1.851,1.856,1.858,1.858,0,0,1-1.856-1.856,1.853,1.853,0,0,1,1.856-1.851Z" transform="translate(-62.497 -50.827)" fill="#f07a1a"/>
      <path id="Path_28076" data-name="Path 28076" d="M-313.792,1152.416a.692.692,0,0,0,.69-.7.683.683,0,0,0-.69-.69.692.692,0,0,0-.7.69A.7.7,0,0,0-313.792,1152.416Z" transform="translate(-129.645 -91.392)" fill="#f07a1a"/>
      <path id="Path_28077" data-name="Path 28077" d="M-264.474,1201.682a.693.693,0,0,0,.7.7.685.685,0,0,0,.69-.7.688.688,0,0,0-.69-.7A.7.7,0,0,0-264.474,1201.682Z" transform="translate(-174.768 -136.463)" fill="#f07a1a"/>
      <path id="Path_28078" data-name="Path 28078" d="M-458.184,1486.931v.635h36.664v-.635c0-.385-1.265-.68-2.795-.68h-31.05c-1.555,0-2.795.3-2.795.68Z" transform="translate(0 -393.833)" fill="#343434"/>
      <path id="Path_28079" data-name="Path 28079" d="M-335.323,1351.756a.391.391,0,0,0-.156-.257l-6.747-4.963a.388.388,0,0,0-.461,0l-6.8,4.986a.394.394,0,0,0-.156.257.394.394,0,0,0,.07.293.392.392,0,0,0,.317.162.386.386,0,0,0,.23-.075l6.574-4.817,6.517,4.794a.388.388,0,0,0,.291.071.389.389,0,0,0,.256-.157.4.4,0,0,0,.07-.294Z" transform="translate(-97.918 -267.711)" fill="#343434"/>
      <path id="Path_28080" data-name="Path 28080" d="M-322.393,1368.828l-5.289-3.961a.346.346,0,0,0-.415,0l-5.331,4.013a.174.174,0,0,0-.07.139v7.091a.174.174,0,0,0,.174.174h3.194a.174.174,0,0,0,.174-.174v-4.038a.175.175,0,0,1,.174-.174h3.741a.174.174,0,0,1,.174.174v4.038a.174.174,0,0,0,.174.174h3.194a.174.174,0,0,0,.174-.174v-7.143a.175.175,0,0,0-.07-.14Z" transform="translate(-112.493 -284.256)" fill="#343434"/>
    </g>
  </g>
</svg>
