<svg xmlns="http://www.w3.org/2000/svg" xmlns:xlink="http://www.w3.org/1999/xlink" width="45" height="45" viewBox="0 0 45 45">
  <defs>
    <clipPath id="clip-path">
      <rect id="Rectangle_5780" data-name="Rectangle 5780" width="45" height="45" transform="translate(442 113)" fill="#fff" stroke="#707070" stroke-width="1"/>
    </clipPath>
  </defs>
  <g id="CTS_map" transform="translate(-442 -113)" clip-path="url(#clip-path)">
    <g id="Group_13465" data-name="Group 13465" transform="translate(-258.912 -1001.351)">
      <g id="Group_13463" data-name="Group 13463" transform="translate(728.8 1138.335)">
        <path id="Path_28060" data-name="Path 28060" d="M1001.58,1541.779h-.944a2.526,2.526,0,0,0-2.494-2.151h-4.536a2.531,2.531,0,0,0-2.494,2.151h-.95a2.036,2.036,0,0,0-2.036,2.036v2.505a.412.412,0,0,0,.409.409h14.672a.412.412,0,0,0,.409-.409v-2.505a2.036,2.036,0,0,0-2.036-2.036Zm1.218,3.1H988.945v-1.067a1.218,1.218,0,0,1,1.217-1.217h11.418a1.218,1.218,0,0,1,1.217,1.217Z" transform="translate(-988.126 -1528.373)" fill="#fd6f02"/>
        <path id="Path_28061" data-name="Path 28061" d="M1051.767,1403.031a.409.409,0,0,0,.442-.371,23.556,23.556,0,0,1,1.163-5.769,3.143,3.143,0,0,0,.18-1.053,3.228,3.228,0,0,0-1.2-2.511,3.234,3.234,0,0,0-5.213,1.889h0a3.185,3.185,0,0,0,.115,1.665,24.02,24.02,0,0,1,1.157,5.78.405.405,0,0,0,.409.371h.038" transform="translate(-1042.57 -1392.606)" fill="#fd6f02"/>
      </g>
      <g id="Group_13464" data-name="Group 13464" transform="translate(706.219 1116.173)">
        <path id="Path_28062" data-name="Path 28062" d="M733.126,1147.411h-.043a.455.455,0,0,1-.459-.416,29.524,29.524,0,0,0-.765-4.692H711.7a.487.487,0,1,1,0-.974h19.889q-.125-.414-.263-.815a3.574,3.574,0,0,1-.128-1.867h0l0-.014H711.7a.487.487,0,1,1,0-.974h19.846a3.643,3.643,0,0,1,2.436-1.859,3.7,3.7,0,0,1,2.108.175v-18.362a1.44,1.44,0,0,0-1.44-1.44h-16.7a3.875,3.875,0,0,0-2.714,1.109l-7.854,7.7a3.875,3.875,0,0,0-1.162,2.766v27.264a1.44,1.44,0,0,0,1.44,1.44h18.572a1.433,1.433,0,0,0,.643-.153h-.345a.462.462,0,0,1-.459-.459v-2.809a2.283,2.283,0,0,1,2.283-2.283h1.065a2.839,2.839,0,0,1,2.8-2.411m1.012-13.385H711.7a.487.487,0,1,1,0-.974h21.526a.487.487,0,0,1,0,.974Zm-12.49-11.99h12.49a.487.487,0,0,1,0,.974h-12.49a.487.487,0,1,1,0-.974Zm0,3.676h12.49a.487.487,0,0,1,0,.974h-12.49a.487.487,0,1,1,0-.974Zm12.49,3.67a.487.487,0,0,1,0,.974H711.7a.487.487,0,1,1,0-.974ZM717.2,1117.984l.318,9.031a.821.821,0,0,1-.885.847l-8.345-.656Z" transform="translate(-706.219 -1116.173)" fill="#343434"/>
      </g>
      <path id="Path_28063" data-name="Path 28063" d="M745.277,1488.672a3.186,3.186,0,0,0-1.158-1.595,3.109,3.109,0,0,0-1.935-.2,7.406,7.406,0,0,1-1.5,0,3.109,3.109,0,0,0-1.935.208,3.153,3.153,0,0,0-1.158,1.595c-.107.234-.2.457-.315.655a5.815,5.815,0,0,1-.4.574,2.464,2.464,0,0,0,0,3.657c.147.2.29.391.4.574a6.465,6.465,0,0,1,.31.645,3.185,3.185,0,0,0,1.158,1.595,2.176,2.176,0,0,0,1.122.259,7.269,7.269,0,0,0,.813-.056,7.407,7.407,0,0,1,1.5,0,3.108,3.108,0,0,0,1.935-.208,3.154,3.154,0,0,0,1.158-1.595c.107-.234.2-.457.315-.65a5.849,5.849,0,0,1,.4-.574,2.464,2.464,0,0,0,0-3.657,6.591,6.591,0,0,1-.4-.574c-.106-.193-.2-.417-.31-.65Zm.762,3.053a2.5,2.5,0,0,1-.66,1.371,7.668,7.668,0,0,0-.442.645,7.317,7.317,0,0,0-.351.726,1.71,1.71,0,0,1-2.321,1.351,8.162,8.162,0,0,0-1.651,0,2.583,2.583,0,0,1-1.478-.107,2.554,2.554,0,0,1-.843-1.244,6.848,6.848,0,0,0-.355-.726,6.934,6.934,0,0,0-.442-.645,1.754,1.754,0,0,1,0-2.743,6.9,6.9,0,0,0,.442-.645,7.339,7.339,0,0,0,.351-.726,2.59,2.59,0,0,1,.843-1.245,1.461,1.461,0,0,1,.747-.157c.228,0,.477.026.732.051a8.162,8.162,0,0,0,1.651,0,2.588,2.588,0,0,1,1.478.107,2.521,2.521,0,0,1,.843,1.245,5.481,5.481,0,0,0,.8,1.372,2.5,2.5,0,0,1,.661,1.371Z" transform="translate(-27.564 -342.271)" fill="#fd6f02"/>
      <path id="Path_28064" data-name="Path 28064" d="M770.352,1512.186a2.966,2.966,0,1,0,2.966,2.966A2.97,2.97,0,0,0,770.352,1512.186Zm0,5.171a2.2,2.2,0,1,1,2.2-2.2A2.206,2.206,0,0,1,770.352,1517.357Z" transform="translate(-56.485 -365.698)" fill="#fd6f02"/>
    </g>
  </g>
</svg>
