<svg xmlns="http://www.w3.org/2000/svg" width="40.995" height="41" viewBox="0 0 40.995 41">
  <g id="District" transform="translate(209 -1970)">
    <path id="business-district-1" d="M20.554,32.215a11.714,11.714,0,1,1,0-23.429,1.465,1.465,0,1,1,0,2.929,8.776,8.776,0,1,0,7.829,4.8,1.467,1.467,0,1,1,2.61-1.335A11.726,11.726,0,0,1,20.554,32.215Zm2.56-11.737a2.929,2.929,0,1,0,1.465-2.537,2.929,2.929,0,0,0-1.465,2.537Z" transform="translate(-209.049 1970)" fill="#343434"/>
    <path id="business-district-1-2" data-name="business-district-1" d="M20.554,41A20.5,20.5,0,0,1,2.994,9.914,1.467,1.467,0,0,1,5.5,11.428a17.539,17.539,0,1,0,8.464-7.223,1.463,1.463,0,0,1-1.1-2.713A20.5,20.5,0,1,1,20.554,41Zm0,0C20.713,39.808,21.908,29.951,20.554,41Z" transform="translate(-209.049 1970)" fill="#fd6f02"/>
  </g>
</svg>
