<svg xmlns="http://www.w3.org/2000/svg" xmlns:xlink="http://www.w3.org/1999/xlink" width="45" height="45" viewBox="0 0 45 45">
  <defs>
    <clipPath id="clip-path">
      <rect id="Rectangle_5788" data-name="Rectangle 5788" width="45" height="45" transform="translate(442 113)" fill="#fff" stroke="#707070" stroke-width="1"/>
    </clipPath>
  </defs>
  <g id="ground" transform="translate(-442 -113)" clip-path="url(#clip-path)">
    <g id="Group_13477" data-name="Group 13477" transform="translate(3481.107 -2005.88)">
      <path id="Path_28090" data-name="Path 28090" d="M-2659.347,2228.126a.892.892,0,0,0,1.22-.261,3.72,3.72,0,0,0-5.143-5.143.857.857,0,0,0-.261,1.22.857.857,0,0,0,1.22.262,2.024,2.024,0,0,1,2.79,2.79.7.7,0,0,0,.174,1.133Z" transform="translate(-345.851 -94.022)" fill="#f07a1a"/>
      <path id="Path_28091" data-name="Path 28091" d="M-2636.157,2182.662a.807.807,0,0,0,1.133-.436c1.744-3.574-3.661-8.979-7.235-7.235a.865.865,0,0,0-.436,1.133.865.865,0,0,0,1.133.436c2.092-1.046,5.927,2.789,4.881,4.882a1.063,1.063,0,0,0,.523,1.22Z" transform="translate(-365.205 -50.127)" fill="#f07a1a"/>
      <path id="Path_28092" data-name="Path 28092" d="M-2618.226,2131.576a.918.918,0,0,0,1.134-.61c1.133-3.923-6.451-11.507-10.374-10.373a1,1,0,0,0-.61,1.133.872.872,0,0,0,1.133.523c2.528-.784,8.979,5.579,8.195,8.195a.907.907,0,0,0,.523,1.133Z" transform="translate(-378.778)" fill="#f07a1a"/>
      <path id="Path_28093" data-name="Path 28093" d="M-2997.177,2164.724l-10.2-10.025a2.8,2.8,0,0,0-3.749,0l-.872.872-.958-.959,3.749-3.749a2.894,2.894,0,0,0,0-4.1l-.7-.7,2.615-2.615a.842.842,0,0,0,0-1.22.842.842,0,0,0-1.22,0l-2.615,2.615-.7-.7a2.894,2.894,0,0,0-4.1,0l-3.749,3.749-.959-.959.872-.872a2.68,2.68,0,0,0,0-3.749l-10.287-10.2a2.631,2.631,0,0,0-3.749,0l-2.876,2.964a2.626,2.626,0,0,0,0,3.749l10.112,10.112a2.6,2.6,0,0,0,3.749,0l.872-.872.959.959-3.749,3.749a2.894,2.894,0,0,0,0,4.1l2.7,2.7a2.893,2.893,0,0,0,4.1,0l3.749-3.749.959.959-.872.872a2.631,2.631,0,0,0,0,3.749l10.113,10.112a2.583,2.583,0,0,0,3.749,0l3.051-3.051A2.679,2.679,0,0,0-2997.177,2164.724Zm-3.836-1.22-1.569,1.569-1.918-1.918,1.569-1.57Zm-3.138-3.138-1.569,1.569-1.918-1.918,1.569-1.569Zm-5.666-4.446a.831.831,0,0,1,1.22,0l1.308,1.308-1.482,1.482-1.918-1.918Zm-13.773-14.993-1.569,1.569-1.918-2.005,1.569-1.569Zm-3.138-3.138-1.569,1.482-1.918-1.831,1.482-1.569Zm-5.753-4.446a.83.83,0,0,1,1.22,0l1.308,1.308-1.482,1.482-1.831-1.918Zm-2.964,4.271a.842.842,0,0,1,0-1.22l.872-.872,1.918,1.918-1.482,1.482Zm2.528,2.441,1.482-1.4,1.918,1.918-1.569,1.569Zm3.138,3.225,1.569-1.569,1.918,1.918-1.569,1.569Zm5.666,4.446a.843.843,0,0,1-1.22,0l-1.308-1.308,1.569-1.569,1.918,1.918Zm3.051-3.05-.872.872-1.918-1.918,1.57-1.569,1.22,1.395A.821.821,0,0,1-3021.064,2144.675Zm2.607,12.078a1.183,1.183,0,0,1-1.672,0l-1.576-1.576a1.181,1.181,0,0,1,0-1.672l6.3-6.3a1.182,1.182,0,0,1,1.672,0l1.576,1.576a1.183,1.183,0,0,1,0,1.672Zm5.588,3.438a.843.843,0,0,1,0-1.221l.872-.872,1.918,1.918-1.569,1.569Zm2.528,2.528,1.57-1.569,1.918,1.918-1.569,1.569Zm3.138,3.138,1.569-1.569,1.918,1.918-1.569,1.569Zm5.666,4.446a.84.84,0,0,1-1.22,0l-1.308-1.307,1.569-1.57,1.918,1.918Zm3.051-3.051-.872.872-1.918-1.918,1.569-1.569,1.22,1.395A.842.842,0,0,1-2998.486,2167.252Z" transform="translate(0 -10.047)" fill="#343434"/>
    </g>
  </g>
</svg>
