<svg xmlns="http://www.w3.org/2000/svg" xmlns:xlink="http://www.w3.org/1999/xlink" width="45" height="45" viewBox="0 0 45 45">
  <defs>
    <clipPath id="clip-path">
      <rect id="Rectangle_5686" data-name="Rectangle 5686" width="45" height="45" transform="translate(442 113)" fill="#fff" stroke="#707070" stroke-width="1"/>
    </clipPath>
  </defs>
  <g id="land_estate" transform="translate(-442 -113)" clip-path="url(#clip-path)">
    <g id="Group_13257" data-name="Group 13257" transform="translate(444 117)">
      <path id="Path_27955" data-name="Path 27955" d="M341.68,2846.272v-35.213h19.964v12.152l1.188-.944V2810.74a.941.941,0,0,0-.273-.589h0a.95.95,0,0,0-.678-.284H341.444a.95.95,0,0,0-.674.281l-.042.045a.944.944,0,0,0-.241.632v9.181h0v26.267h6.142v-8.058a.543.543,0,0,1,.543-.543h3.87v9.792H340.483v-1.191Z" transform="translate(-340.483 -2809.867)" fill="#343434" fill-rule="evenodd"/>
      <g id="Group_13256" data-name="Group 13256">
        <path id="Path_27956" data-name="Path 27956" d="M348.746,2846.313v-11.641a2,2,0,0,0,1.389.065,1.651,1.651,0,0,0,.765-.534,1.69,1.69,0,0,0,.364-.865,2.184,2.184,0,0,0-.523-1.627h0a.549.549,0,0,0-.076-.075l-12.491-9.763a.448.448,0,0,0-.589-.023l-12.52,9.731h0l-.055.049a2.06,2.06,0,0,0-.582,1.9,1.751,1.751,0,0,0,1.106,1.243,1.92,1.92,0,0,0,1.487-.1v11.583h1.211v-12.094c0-.222,8.589-7.01,9.536-7.75,1.006.765,9.764,7.485,9.764,7.782v12.119Z" transform="translate(-311.274 -2808.72)" fill="#fd6f02" fill-rule="evenodd"/>
        <path id="Path_27957" data-name="Path 27957" d="M340.571,2834.151v3.941h-3.534A3.961,3.961,0,0,1,340.571,2834.151Z" transform="translate(-314.444 -2807.522)" fill="#fd6f02" fill-rule="evenodd"/>
        <rect id="Rectangle_5683" data-name="Rectangle 5683" width="3.534" height="3.424" transform="translate(22.593 31.4)" fill="#fd6f02"/>
        <rect id="Rectangle_5684" data-name="Rectangle 5684" width="3.531" height="3.424" transform="translate(26.957 31.4)" fill="#fd6f02"/>
        <path id="Path_27958" data-name="Path 27958" d="M333.06,2838.1v-3.944a3.965,3.965,0,0,1,3.531,3.929h0Z" transform="translate(-306.103 -2807.522)" fill="#fd6f02" fill-rule="evenodd"/>
        <rect id="Rectangle_5685" data-name="Rectangle 5685" width="11.316" height="0.83" transform="translate(20.884 36.555)" fill="#fd6f02"/>
      </g>
      <path id="Path_27959" data-name="Path 27959" d="M347.4,2813.687h-3.205a.1.1,0,0,0-.092.091v3.711a.092.092,0,0,0,.092.087H347.4a.088.088,0,0,0,.091-.084v-3.714A.091.091,0,0,0,347.4,2813.687Z" transform="translate(-329.108 -2809.498)" fill="#343434" fill-rule="evenodd"/>
      <path id="Path_27960" data-name="Path 27960" d="M357.446,2813.687h-3.205a.094.094,0,0,0-.091.091v3.711a.091.091,0,0,0,.091.087h3.205a.092.092,0,0,0,.092-.087v-3.711A.1.1,0,0,0,357.446,2813.687Z" transform="translate(-350.176 -2809.498)" fill="#343434" fill-rule="evenodd"/>
      <path id="Path_27961" data-name="Path 27961" d="M352.422,2813.687h-3.205a.094.094,0,0,0-.091.091v3.711a.091.091,0,0,0,.091.087h3.205a.088.088,0,0,0,.091-.084v-3.714A.091.091,0,0,0,352.422,2813.687Z" transform="translate(-339.642 -2809.498)" fill="#343434" fill-rule="evenodd"/>
      <path id="Path_27962" data-name="Path 27962" d="M347.4,2820.482h-3.205a.092.092,0,0,0-.092.088v3.71a.094.094,0,0,0,.092.091H347.4a.091.091,0,0,0,.091-.091v-3.72a.088.088,0,0,0-.088-.088h0Z" transform="translate(-329.108 -2808.843)" fill="#343434" fill-rule="evenodd"/>
      <path id="Path_27963" data-name="Path 27963" d="M357.446,2820.482h-3.205a.091.091,0,0,0-.091.088v3.71a.093.093,0,0,0,.091.091h3.205a.094.094,0,0,0,.092-.091v-3.72a.092.092,0,0,0-.092-.088Z" transform="translate(-350.176 -2808.843)" fill="#343434" fill-rule="evenodd"/>
      <path id="Path_27964" data-name="Path 27964" d="M352.422,2820.482h-3.205a.09.09,0,0,0-.091.088v3.71a.093.093,0,0,0,.091.091h3.205a.091.091,0,0,0,.091-.091v-3.72a.087.087,0,0,0-.088-.088h0Z" transform="translate(-339.642 -2808.843)" fill="#343434" fill-rule="evenodd"/>
      <path id="Path_27965" data-name="Path 27965" d="M357.446,2827.271h-3.205a.1.1,0,0,0-.091.092v3.706a.094.094,0,0,0,.091.091h3.205a.1.1,0,0,0,.092-.091v-3.706A.1.1,0,0,0,357.446,2827.271Z" transform="translate(-350.176 -2808.187)" fill="#343434" fill-rule="evenodd"/>
      <path id="Path_27966" data-name="Path 27966" d="M352.428,2827.271h-3.205a.1.1,0,0,0-.091.092v3.706a.094.094,0,0,0,.091.091h.976v-1.227l2.314-1.836v-.734a.092.092,0,0,0-.091-.092Z" transform="translate(-339.648 -2808.187)" fill="#343434" fill-rule="evenodd"/>
    </g>
  </g>
</svg>
