<svg xmlns="http://www.w3.org/2000/svg" xmlns:xlink="http://www.w3.org/1999/xlink" width="45" height="45" viewBox="0 0 45 45">
  <defs>
    <clipPath id="clip-path">
      <rect id="Rectangle_5751" data-name="Rectangle 5751" width="45" height="45" transform="translate(442 113)" fill="#fff" stroke="#707070" stroke-width="1"/>
    </clipPath>
  </defs>
  <g id="landmark" transform="translate(-442 -113)" clip-path="url(#clip-path)">
    <g id="Group_13439" data-name="Group 13439" transform="translate(991.96 -2500)">
      <path id="map-icon" d="M18.992,24.4a.541.541,0,0,1-.621.02,21.771,21.771,0,0,1-5.385-4.8A17.114,17.114,0,0,1,9.363,11.8a10.343,10.343,0,0,1,1.315-7.314,9.009,9.009,0,0,1,2-2.222A9.753,9.753,0,0,1,18.805,0a8.675,8.675,0,0,1,5.826,2.376,8.675,8.675,0,0,1,1.555,1.9,11.585,11.585,0,0,1,1.1,8.382,18.448,18.448,0,0,1-8.3,11.752ZM18.4,4.741a4.578,4.578,0,1,1-4.578,4.578A4.578,4.578,0,0,1,18.4,4.741Z" transform="translate(-545.96 2615)" fill="#fd6f02" fill-rule="evenodd"/>
      <path id="map-icon-2" data-name="map-icon" d="M12.652,24.651v9.282l10.06,4.338V26.316a21.745,21.745,0,0,0,2.152-1.879v13.74l8.342-4.2V15.292L30,16.526a20.558,20.558,0,0,0,.794-2.606l3.1-1.2a1.074,1.074,0,0,1,1.371.624,1.061,1.061,0,0,1,.073.387V34.654a1.078,1.078,0,0,1-.667,1l-10.41,5.228a1.078,1.078,0,0,1-.974,0L11.611,35.822,1.562,40.884A1.074,1.074,0,0,1,.117,40.41,1.094,1.094,0,0,1,0,39.926V17.764A1.078,1.078,0,0,1,.774,16.73l5.465-2.109a19.562,19.562,0,0,0,.721,2.025L2.155,18.5V38.184l8.342-4.2v-11.6A25.452,25.452,0,0,0,12.652,24.651Z" transform="translate(-544.96 2615)" fill="#343434" fill-rule="evenodd"/>
    </g>
  </g>
</svg>
