<svg xmlns="http://www.w3.org/2000/svg" xmlns:xlink="http://www.w3.org/1999/xlink" width="45" height="45" viewBox="0 0 45 45">
  <defs>
    <clipPath id="clip-path">
      <rect id="Rectangle_5667" data-name="Rectangle 5667" width="45" height="45" transform="translate(442 113)" fill="#fff" stroke="#707070" stroke-width="1"/>
    </clipPath>
  </defs>
  <g id="municaipal" transform="translate(-442 -113)" clip-path="url(#clip-path)">
    <g id="Group_13241" data-name="Group 13241" transform="translate(-9.676 -2604.218)">
      <path id="Path_27876" data-name="Path 27876" d="M470.675,2725.77a11.3,11.3,0,0,1,16.106,15.846" transform="translate(3.683 0.789)" fill="none" stroke="#fd6f02" stroke-linecap="round" stroke-miterlimit="10" stroke-width="1" stroke-dasharray="2"/>
      <g id="Group_13240" data-name="Group 13240" transform="translate(453.676 2718.787)">
        <path id="Path_27877" data-name="Path 27877" d="M453.676,2738.643l11.769-3.673-.15,17.616-3-1.449v-8.488a1.3,1.3,0,0,0-1.3-1.3h0a1.3,1.3,0,0,0-1.3,1.3v7.238l-1.525-.7v-4.306a1.324,1.324,0,0,0-1.324-1.325h0a1.324,1.324,0,0,0-1.325,1.325v3.056l-1.849-.9Z" transform="translate(-453.676 -2715.281)" fill="#343434"/>
        <path id="Path_27878" data-name="Path 27878" d="M486.988,2738.643l-11.768-3.673.15,17.616,3-1.449v-8.488a1.3,1.3,0,0,1,1.3-1.3h0a1.3,1.3,0,0,1,1.3,1.3v7.238l1.524-.7v-4.306a1.324,1.324,0,0,1,1.324-1.325h0a1.325,1.325,0,0,1,1.325,1.325v3.056l1.848-.9Z" transform="translate(-449.008 -2715.281)" fill="#fd6f02"/>
        <path id="Path_27879" data-name="Path 27879" d="M468.014,2743.3v8.85h-3.823l.151-11.394,6.046-4.247,6.347,4.447-.05,11.144h-3.7v-8.8a2.486,2.486,0,0,0-2.511-2.486h0A2.486,2.486,0,0,0,468.014,2743.3Z" transform="translate(-451.398 -2714.948)" fill="#343434"/>
        <path id="Path_27880" data-name="Path 27880" d="M464.226,2727.962v1.583l6.03-4.248,6.4,4.581.033-1.933-6.3-4.414Z" transform="translate(-451.39 -2717.76)" fill="#343434"/>
        <path id="Path_27881" data-name="Path 27881" d="M470.359,2726l-6.1,4.2-.05,11.877,6.047-4.165,6.355,4.215.091-11.578Zm.1,8.594a2.174,2.174,0,1,1,2.174-2.173A2.173,2.173,0,0,1,470.458,2734.591Z" transform="translate(-451.393 -2717.226)" fill="#343434"/>
      </g>
    </g>
  </g>
</svg>
