<svg xmlns="http://www.w3.org/2000/svg" xmlns:xlink="http://www.w3.org/1999/xlink" width="45" height="45" viewBox="0 0 45 45">
  <defs>
    <clipPath id="clip-path">
      <rect id="Rectangle_5757" data-name="Rectangle 5757" width="45" height="45" transform="translate(442 113)" fill="#fff" stroke="#707070" stroke-width="1"/>
    </clipPath>
  </defs>
  <g id="Property_data" transform="translate(-442 -113)" clip-path="url(#clip-path)">
    <g id="Group_13462" data-name="Group 13462" transform="translate(991 -2724)">
      <path id="home-protection-care-icon" d="M0,23.148H6.407L6.043,38.905H0ZM7.844,37.633l.3-13.079,5.883.137a22.076,22.076,0,0,1,7.4,3.544L26,28.341c2.065.173,3.1,2.294,1.059,3.625-1.63,1.137-3.742,1.022-5.9.777a.984.984,0,1,0-.045,1.942c.54.054,1.132-.059,1.646-.047,2.7.06,4.944-.4,6.357-2.509l.723-1.583,6.875-3.212c3.428-1.041,5.762,2.574,3.2,4.989A89.046,89.046,0,0,1,24.569,40.88a10.252,10.252,0,0,1-11.252-.262L7.844,37.633Z" transform="translate(-547 2836.806)" fill="#343434" fill-rule="evenodd"/>
      <path id="home-protection-care-icon-2" data-name="home-protection-care-icon" d="M15.176,19.263v-5.14a2.218,2.218,0,0,1-1.523.072,1.8,1.8,0,0,1-.839-.587,1.853,1.853,0,0,1-.386-.947A2.392,2.392,0,0,1,13,10.893a.523.523,0,0,1,.082-.082L26.766.133a.5.5,0,0,1,.647-.026l13.712,10.66a.388.388,0,0,1,.06.055,2.254,2.254,0,0,1,.64,2.081,1.94,1.94,0,0,1-.436.834,1.894,1.894,0,0,1-.777.525,2.1,2.1,0,0,1-1.628-.106v7.6A6.633,6.633,0,0,0,37.737,22l-.1.029V13.567c0-.242-9.406-7.677-10.444-8.485-1.1.837-10.679,8.212-10.679,8.523v5.8q-.186-.044-.373-.082a2.358,2.358,0,0,0-.424-.047l-.546-.013ZM27.6,12.743v4.313h3.87v-.012a4.341,4.341,0,0,0-3.87-4.3Zm0,5.224v3.745h3.87V17.968H27.6Zm-.911,3.743V17.968H22.823v3.745h3.869Zm0-4.654V12.743a4.342,4.342,0,0,0-3.87,4.3v.012h3.87Zm.456-5.248a5.247,5.247,0,0,1,5.234,5.234v5.577H22.375a1,1,0,0,1-.257-.105,1.5,1.5,0,0,1-.207-.15V17.042a5.247,5.247,0,0,1,5.236-5.234ZM39.013,1.232V6.58L34.9,3.864V1.232h4.117Z" transform="translate(-548.645 2840)" fill="#fd6f02" fill-rule="evenodd"/>
    </g>
  </g>
</svg>
