<svg xmlns="http://www.w3.org/2000/svg" xmlns:xlink="http://www.w3.org/1999/xlink" width="45" height="45" viewBox="0 0 45 45">
  <defs>
    <clipPath id="clip-path">
      <rect id="Rectangle_5676" data-name="Rectangle 5676" width="45" height="45" transform="translate(442 113)" fill="#fff" stroke="#707070" stroke-width="1"/>
    </clipPath>
  </defs>
  <g id="property_tax_zone" transform="translate(-442 -113)" clip-path="url(#clip-path)">
    <g id="Group_13252" data-name="Group 13252" transform="translate(-303.952 -2686.69)">
      <path id="Path_27931" data-name="Path 27931" d="M776.507,2838.416a8.065,8.065,0,0,1,3.683-14.648v-.805L766.772,2809.7l-13.418,13.418-.057,13.874a1.422,1.422,0,0,0,1.422,1.428h8.056v-14.474a1.621,1.621,0,0,1,1.622-1.62h4.9a1.62,1.62,0,0,1,1.62,1.62v14.474Z" transform="translate(0.997 0.919)" fill="#343434"/>
      <path id="Path_27932" data-name="Path 27932" d="M786.312,2825.343a1.341,1.341,0,0,0-.258-1.555l-18.36-18.1-18.349,18.349a1.341,1.341,0,0,0,1.9,1.9l16.539-16.539,15,14.995A8.282,8.282,0,0,1,786.312,2825.343Z" fill="#343434"/>
      <path id="Path_27933" data-name="Path 27933" d="M772.192,2813.007l-4.071-4V2806.6h4.071Z" transform="translate(4.397 0.209)" fill="#343434"/>
      <path id="Path_27934" data-name="Path 27934" d="M777.259,2822.143a6.746,6.746,0,1,0,6.747,6.747A6.747,6.747,0,0,0,777.259,2822.143Zm0,12.06a5.314,5.314,0,1,1,5.315-5.313A5.314,5.314,0,0,1,777.259,2834.2Z" transform="translate(4.946 3.774)" fill="#fd6f02"/>
      <g id="Group_13251" data-name="Group 13251" transform="translate(778.461 2829.575)">
        <path id="Path_27935" data-name="Path 27935" d="M774.733,2825.118a1.654,1.654,0,0,1,1.705,1.779,1.768,1.768,0,0,1-1.76,1.917,1.7,1.7,0,0,1-1.722-1.816,1.762,1.762,0,0,1,1.769-1.88Zm-.037.885c-.377,0-.525.423-.525.968,0,.57.184.958.543.958.332,0,.506-.332.506-.958,0-.553-.138-.968-.515-.968Zm.111,5.308,3.41-6.183h.847l-3.4,6.183Zm4.423-3.7a1.648,1.648,0,0,1,1.705,1.777,1.769,1.769,0,0,1-1.76,1.918,1.7,1.7,0,0,1-1.724-1.816,1.757,1.757,0,0,1,1.77-1.879Zm-.037.884c-.377,0-.525.424-.525.967,0,.572.175.959.543.959.332,0,.506-.332.506-.959,0-.562-.148-.967-.515-.967Z" transform="translate(-772.955 -2825.118)" fill="#fd6f02"/>
      </g>
    </g>
  </g>
</svg>
