<svg xmlns="http://www.w3.org/2000/svg" xmlns:xlink="http://www.w3.org/1999/xlink" width="45" height="45" viewBox="0 0 45 45">
  <defs>
    <clipPath id="clip-path">
      <rect id="Rectangle_5679" data-name="Rectangle 5679" width="45" height="45" transform="translate(442 113)" fill="#fff" stroke="#707070" stroke-width="1"/>
    </clipPath>
  </defs>
  <g id="rail_road" transform="translate(-442 -113)" clip-path="url(#clip-path)">
    <g id="Group_13254" data-name="Group 13254" transform="translate(-1391.564 -2674.657)">
      <g id="Group_13253" data-name="Group 13253" transform="translate(1837.564 2792.023)">
        <rect id="Rectangle_5677" data-name="Rectangle 5677" width="17.179" height="12.883" transform="translate(10.233 4.558)" fill="#fd6f02"/>
        <path id="Path_27936" data-name="Path 27936" d="M1868.369,2818.1v0h-.017a2.232,2.232,0,1,0,.017,0Z" transform="translate(-1842.568 -2796.897)" fill="#343434"/>
        <path id="Path_27937" data-name="Path 27937" d="M1875.143,2829.347a.544.544,0,0,0-.1-.13l-7.248-9.31a3.244,3.244,0,0,0,1.463-2.7v-21.472a3.226,3.226,0,0,0-3.221-3.221h-19.325a3.226,3.226,0,0,0-3.222,3.221v21.472a3.247,3.247,0,0,0,1.463,2.7l-7.247,9.31a.537.537,0,1,0,.791.727.436.436,0,0,0,.045-.055l1.509-1.963a.542.542,0,0,0,.21.017h32.21a.534.534,0,0,0,.209-.034l1.526,1.963a.537.537,0,1,0,.937-.525Zm-28.418-32.814a.535.535,0,0,1,.435-.538h.008a.685.685,0,0,1,.1,0h18.247a.538.538,0,0,1,.537.538v13.958a.537.537,0,0,1-.537.538h-18.253a.538.538,0,0,1-.538-.538Zm19.323,18.791a2.684,2.684,0,1,1-2.684-2.684v0A2.69,2.69,0,0,1,1866.048,2815.324Zm-16.641-2.684,0,0a2.685,2.685,0,1,1-2.686,2.686A2.691,2.691,0,0,1,1849.409,2812.638Zm-3.455,7.71a3.272,3.272,0,0,0,.755.084h19.328a3.277,3.277,0,0,0,.755-.084l2.146,2.768h-25.128Zm-5.062,6.523,2.184-2.831a.541.541,0,0,0,.418.135h25.767a.542.542,0,0,0,.4-.168l-.007.013,2.213,2.85Z" transform="translate(-1837.564 -2792.512)" fill="#343434"/>
        <path id="Path_27938" data-name="Path 27938" d="M1851.524,2821.318a1.609,1.609,0,0,0,0-3.219l0,0h-.023a1.612,1.612,0,0,0,.021,3.223Z" transform="translate(-1839.681 -2796.897)" fill="#343434"/>
      </g>
      <rect id="Rectangle_5678" data-name="Rectangle 5678" width="2.016" height="3.657" rx="0.482" transform="translate(1855.224 2789.657)" fill="#343434"/>
    </g>
  </g>
</svg>
