<svg xmlns="http://www.w3.org/2000/svg" xmlns:xlink="http://www.w3.org/1999/xlink" width="45" height="45" viewBox="0 0 45 45">
  <defs>
    <clipPath id="clip-path">
      <rect id="Rectangle_5682" data-name="Rectangle 5682" width="45" height="45" transform="translate(442 113)" fill="#fff" stroke="#707070" stroke-width="1"/>
    </clipPath>
  </defs>
  <g id="Railway_metro_station" transform="translate(-442 -113)" clip-path="url(#clip-path)">
    <g id="Group_12492" data-name="Group 12492" transform="translate(-1592.739 -2661.99)">
      <path id="Path_24968" data-name="Path 24968" d="M2043.813,2778.99a1.024,1.024,0,0,0-1.048.986v.96h-2.786a1.543,1.543,0,0,0-1.567,1.5v20.45a5.08,5.08,0,0,0,3.214,4.187,16.073,16.073,0,0,0,7.315,1.588h3.317a16.073,16.073,0,0,0,7.315-1.588,5.078,5.078,0,0,0,3.213-4.187v-20.45a1.543,1.543,0,0,0-1.566-1.5h-2.782v-.96a1.024,1.024,0,0,0-1.047-.986Zm.51,2.012h12.556v1.3a.525.525,0,0,0,.525.525h3.131a.379.379,0,0,1,.415.339V2802.3c0,1.082-.855,2.156-2.437,2.985a14.1,14.1,0,0,1-6.354,1.365h-3.1a14.09,14.09,0,0,1-6.352-1.365c-1.586-.831-2.437-1.9-2.437-2.985V2783.18a.379.379,0,0,1,.4-.358h3.149a.526.526,0,0,0,.525-.525Zm2.586.4a1.2,1.2,0,1,0,1.2,1.2,1.2,1.2,0,0,0-1.2-1.2Zm7.385,0a1.2,1.2,0,1,0,1.2,1.2,1.2,1.2,0,0,0-1.2-1.2Zm19.531,1.466a.982.982,0,0,0-.988.959v6.585a.981.981,0,0,0,.988.959h.9v14.755l-13.926.036a1.039,1.039,0,0,0-.665.221.8.8,0,0,0-.257.323.735.735,0,0,0,0,.527l2.845,7.312a1.2,1.2,0,0,0,.279.443.961.961,0,0,0,.645.259h13.122a.927.927,0,0,0,.959-.886v-7.354a.925.925,0,0,0-.959-.886h-1v-14.752h.984a.981.981,0,0,0,.988-.959v-6.583a.982.982,0,0,0-.988-.959Zm-31,2.052a.973.973,0,0,0-.985.946c0,2.7.032,4.125,0,6.865v2.257c0,1.367,1.108,2.486,2.689,3.242a15.809,15.809,0,0,0,12.123,0c1.581-.76,2.689-1.877,2.689-3.242v-9.125a.973.973,0,0,0-.985-.946Zm32.457-.284a.836.836,0,1,1-.835.835h0a.776.776,0,0,1,.721-.828.682.682,0,0,1,.122,0Zm-17.617,10.094c0,.756-.667,1.548-1.948,2.162a13.489,13.489,0,0,1-10.252,0c-1.288-.614-1.948-1.406-1.948-2.162v-2.046c.024-2.489,0-3.789,0-6.225h14.148m-19.3-.507h0a.632.632,0,0,0-.625.64v5.437a.635.635,0,1,0,1.268.083.582.582,0,0,0,0-.083V2786.6a.635.635,0,0,0-.627-.643h-.016Zm24.446.24h0a.588.588,0,0,0-.58.595v5.05a.59.59,0,1,0,1.177.077.5.5,0,0,0,0-.077v-5.044a.589.589,0,0,0-.582-.6h-.015Zm12.475,1.49,0,.26a.882.882,0,1,1-.883.883h0a.821.821,0,0,1,.763-.875.935.935,0,0,1,.128,0Zm-6.648,4.051a1.728,1.728,0,1,0,.009,0Zm0,.925a.221.221,0,1,1-.221.221h0a.206.206,0,0,1,.188-.223.237.237,0,0,1,.042,0Zm-.886,1.633a.982.982,0,0,0-.989.959v4.7a.966.966,0,0,0,.7.91v4.377h0a.525.525,0,0,0,.525.525h1.312a.525.525,0,0,0,.526-.525v-4.376a.967.967,0,0,0,.7-.911v-4.7a.981.981,0,0,0-.988-.959Zm.06,1.048h1.655v4.52h-1.646Zm.7,5.568h.264v3.8h-.264Zm-23.02.209a1.275,1.275,0,0,0-1.284,1.247v.288a1.275,1.275,0,0,0,1.284,1.247h10.21a1.276,1.276,0,0,0,1.284-1.247v-.288a1.275,1.275,0,0,0-1.284-1.247Zm1.238,1.368h7.735v.049h-7.726Zm-3.767,4.073h0a.525.525,0,0,0-.468.341l-2.881,7.431a.525.525,0,1,0,.978.379l.478-1.238h19.006l.479,1.238h0a.525.525,0,0,0,.977-.379l-2.88-7.431a.525.525,0,0,0-1,.315.537.537,0,0,0,.025.064l.563,1.451h-15.308l.563-1.451h0a.525.525,0,0,0-.51-.72Zm-.441,3.221h16.148l1.024,2.646H2041.5Z" fill="#343434"/>
      <rect id="Rectangle_5681" data-name="Rectangle 5681" width="19" height="16" transform="translate(2041.739 2783.99)" fill="#fff"/>
    </g>
    <path id="Rectangle_5701" data-name="Rectangle 5701" d="M1,0H17a1,1,0,0,1,1,1V8a5,5,0,0,1-5,5H5A5,5,0,0,1,0,8V1A1,1,0,0,1,1,0Z" transform="translate(449 123)" fill="#fd6f02"/>
  </g>
</svg>
