<svg xmlns="http://www.w3.org/2000/svg" xmlns:xlink="http://www.w3.org/1999/xlink" width="45" height="45" viewBox="0 0 45 45">
  <defs>
    <clipPath id="clip-path">
      <rect id="Rectangle_5666" data-name="Rectangle 5666" width="45" height="45" transform="translate(442 113)" fill="#fff" stroke="#707070" stroke-width="1"/>
    </clipPath>
  </defs>
  <g id="reservoir" transform="translate(-442 -113)" clip-path="url(#clip-path)">
    <g id="Group_12505" data-name="Group 12505" transform="translate(-1085.789 -2679.35)">
      <g id="Path_25006" data-name="Path 25006" transform="translate(1536.725 2806.817)">
        <path id="Path_27864" data-name="Path 27864" d="M1538.828,2808.67a.6.6,0,1,0-1.207,0v6.043a.6.6,0,0,0,1.209,0Z" transform="translate(-1536.941 -2807.384)" fill="#fd6f02"/>
        <path id="Path_27865" data-name="Path 27865" d="M1538.194,2815.96a1.286,1.286,0,0,1-1.285-1.284v-6.039a1.288,1.288,0,0,1,1.284-1.286h0a1.286,1.286,0,0,1,1.279,1.286l0,6.039A1.286,1.286,0,0,1,1538.194,2815.96Z" transform="translate(-1536.909 -2807.352)" fill="#fd6f02"/>
      </g>
      <g id="Path_25007" data-name="Path 25007" transform="translate(1536.724 2816.443)">
        <path id="Path_27866" data-name="Path 27866" d="M1538.222,2818.138c-.333,0-.6.139-.6.311h0v.623c0,.172.27.312.6.312s.6-.14.6-.312v-.622c0-.171-.268-.312-.6-.312Z" transform="translate(-1536.939 -2817.458)" fill="#fd6f02"/>
        <path id="Path_27867" data-name="Path 27867" d="M1538.191,2820.032c-.744,0-1.284-.417-1.284-.992v-.623c0-.574.539-.991,1.283-.991h0a1.434,1.434,0,0,1,1.02.371.88.88,0,0,1,.262.627v.616C1539.475,2819.615,1538.935,2820.032,1538.191,2820.032Zm0-1.361h0l0-.565Zm-.075-.253v0Z" transform="translate(-1536.907 -2817.426)" fill="#fd6f02"/>
      </g>
      <g id="Path_25008" data-name="Path 25008" transform="translate(1539.677 2808.196)">
        <path id="Path_27868" data-name="Path 27868" d="M1547.1,2809.825a.6.6,0,0,0-1.188,0,19.914,19.914,0,0,1-3.449,6.8,8.522,8.522,0,0,0-1.765,7.043,6.317,6.317,0,0,0,4.857,4.293,5.5,5.5,0,0,0,1.992-.014,6.34,6.34,0,0,0,4.776-4.294,8.521,8.521,0,0,0-1.765-7.042,20.093,20.093,0,0,1-3.458-6.8Zm4.061,13.523a5.149,5.149,0,0,1-3.847,3.435h0a4.374,4.374,0,0,1-1.545.013,5.15,5.15,0,0,1-3.909-3.435,7.379,7.379,0,0,1,1.586-6.01h0a26.7,26.7,0,0,0,3.061-5.436,26.8,26.8,0,0,0,3.065,5.436,7.383,7.383,0,0,1,1.586,6.01Z" transform="translate(-1540.022 -2808.819)" fill="#fd6f02"/>
        <path id="Path_27869" data-name="Path 27869" d="M1546.482,2828.536a5.98,5.98,0,0,1-1.042-.092,6.82,6.82,0,0,1-5.256-4.641l-.014-.056a9,9,0,0,1,1.871-7.464,19.325,19.325,0,0,0,3.348-6.6,1.113,1.113,0,0,1,2.172-.036h0a19.47,19.47,0,0,0,3.371,6.632,9,9,0,0,1,1.862,7.455l-.014.056a6.854,6.854,0,0,1-5.16,4.639A6.072,6.072,0,0,1,1546.482,2828.536Zm-5.316-5.014a5.8,5.8,0,0,0,4.457,3.919,4.969,4.969,0,0,0,1.8-.015,5.831,5.831,0,0,0,4.377-3.919,7.981,7.981,0,0,0-1.664-6.593,20.522,20.522,0,0,1-3.554-6.987l.141-.04-.155.006a.1.1,0,0,0-.108-.075.093.093,0,0,0-.074.075l-.011.048a20.34,20.34,0,0,1-3.538,6.979A7.993,7.993,0,0,0,1541.166,2823.521Zm5.311,3.824a4.859,4.859,0,0,1-.823-.071,5.67,5.67,0,0,1-4.306-3.777l-.018-.071a7.879,7.879,0,0,1,1.7-6.426,26.176,26.176,0,0,0,2.983-5.306l.47-1.125.471,1.125a26.366,26.366,0,0,0,3.007,5.331,7.862,7.862,0,0,1,1.677,6.4l-.388-.065.372.122a5.674,5.674,0,0,1-4.227,3.774A4.848,4.848,0,0,1,1546.477,2827.345Zm-4.15-4.134a4.649,4.649,0,0,0,3.51,3.06,3.819,3.819,0,0,0,1.354-.013,4.653,4.653,0,0,0,3.446-3.059,6.863,6.863,0,0,0-1.486-5.546,27.412,27.412,0,0,1-2.672-4.5,27.117,27.117,0,0,1-2.649,4.478A6.887,6.887,0,0,0,1542.327,2823.211Z" transform="translate(-1539.998 -2808.795)" fill="#fd6f02"/>
      </g>
      <g id="Path_25009" data-name="Path 25009" transform="translate(1542.666 2818.926)">
        <path id="Path_27870" data-name="Path 27870" d="M1544.677,2821.036a.6.6,0,0,0-1.116-.459l-.011.031a3.792,3.792,0,0,0,.7,3.838h0a.6.6,0,0,0,.9-.808l-.037-.038A2.576,2.576,0,0,1,1544.677,2821.036Z" transform="translate(-1543.134 -2820.033)" fill="#fd6f02"/>
        <path id="Path_27871" data-name="Path 27871" d="M1544.685,2824.806a.775.775,0,0,1-.574-.255,3.955,3.955,0,0,1-.728-4.012l.012-.033a.774.774,0,0,1,1.429,0,.764.764,0,0,1,0,.59,2.411,2.411,0,0,0,.4,2.393h0a.221.221,0,0,1,.031.031.773.773,0,0,1-.572,1.293Zm-.574-4.441a.433.433,0,0,0-.4.269,3.626,3.626,0,0,0,.654,3.692.434.434,0,0,0,.642-.583l-.027-.027a2.755,2.755,0,0,1-.471-2.748l0,0a.433.433,0,0,0-.235-.565A.422.422,0,0,0,1544.111,2820.365Z" transform="translate(-1543.127 -2820.026)" fill="#fd6f02"/>
      </g>
      <g id="Path_25010" data-name="Path 25010" transform="translate(1553.516 2799.274)">
        <path id="Path_27872" data-name="Path 27872" d="M1562.436,2800.169a.6.6,0,0,0-.6.6h0v2.414H1556.4v-2.414a.6.6,0,1,0-1.206,0v33.509a.6.6,0,0,0,1.208,0h0v-2.719h5.434v2.719a.6.6,0,0,0,1.209,0h0v-33.509a.6.6,0,0,0-.6-.6Zm-6.039,13.283h5.433v3.321H1556.4Zm0,4.527h5.433v3.321H1556.4Zm5.433-5.736H1556.4v-3.32h5.433Zm-5.433,10.264h5.433v3.32H1556.4Zm5.433-18.114v3.321H1556.4V2804.4Zm-5.433,25.961v-3.318h5.433v3.321Z" transform="translate(-1554.514 -2799.489)" fill="#fd6f02"/>
        <path id="Path_27873" data-name="Path 27873" d="M1562.407,2835.533a1.286,1.286,0,0,1-1.284-1.284v-2.038h-4.073v2.038a1.284,1.284,0,0,1-2.568,0V2800.74a1.283,1.283,0,1,1,2.566,0v1.735h4.073v-1.735a1.284,1.284,0,0,1,1.283-1.283h0a1.285,1.285,0,0,1,1.284,1.283v33.509A1.287,1.287,0,0,1,1562.407,2835.533Zm-5.361-5.89h4.073v-1.96h-4.073Zm0-4.528h4.073v-1.96h-4.073Zm0-4.527h4.073v-1.961h-4.073Zm0-4.527h4.073v-1.96h-4.073Zm0-4.53h4.073v-1.96h-4.073Zm0-4.529h4.073v-1.961l-4.073,0Z" transform="translate(-1554.482 -2799.457)" fill="#fd6f02"/>
      </g>
      <g id="Path_25011" data-name="Path 25011" transform="translate(1532.789 2795.35)">
        <path id="Path_27874" data-name="Path 27874" d="M1567.32,2801.192c0-3.267-8.372-5.059-16.415-5.131h-1.05c-8.026.082-16.342,1.873-16.354,5.129v27.476c0,3.333,8.708,5.135,16.9,5.135a8.842,8.842,0,0,0,1.432-.067v-1.2a8.606,8.606,0,0,1-1.432.06c-9.725,0-15.7-2.285-15.7-3.926v-25.471c2.667,2.044,9.336,3.128,15.7,3.128a13.53,13.53,0,0,0,1.772-.028v-1.2a13.87,13.87,0,0,1-1.772.021c-9.725,0-15.7-2.286-15.7-3.924,0-.582.758-1.245,2.166-1.859h0a1.353,1.353,0,0,0-.052.35c0,2.866,8.885,3.622,13.584,3.622a13.054,13.054,0,0,0,1.772-.03v-1.208a13.024,13.024,0,0,1-1.772.031c-8.009,0-12.377-1.594-12.377-2.415,0-.763,3.808-2.2,10.825-2.393.116,0,1.277-.021,1.55-.021,9.726,0,15.7,2.286,15.7,3.924,0,.53-.632,1.131-1.812,1.7v1.329a8.443,8.443,0,0,0,1.812-1.014v25.457c0,.532-.632,1.131-1.812,1.7v1.317c1.861-.794,3.018-1.8,3.018-3.015Z" transform="translate(-1532.821 -2795.382)" fill="#343434"/>
        <path id="Path_27875" data-name="Path 27875" d="M1550.872,2834.45h-.5c-6.082,0-17.584-1.215-17.584-5.815v-27.476c.017-4.449,10.712-5.744,17.028-5.808h1.057c6.353.055,17.095,1.342,17.095,5.81l-.013,27.468c0,1.445-1.154,2.67-3.431,3.641l-.947.4V2829.9l.386-.186c1.175-.564,1.424-1,1.426-1.085V2804.4a8.976,8.976,0,0,1-.875.412l-.936.381v-2.768l.386-.186c1.17-.562,1.423-1,1.426-1.085-.017-.755-4.733-3.243-15.018-3.243-.163,0-.649.008-1.032.013l-.518.008c-5.883.158-9.035,1.18-9.945,1.717,1.055.636,4.95,1.731,11.5,1.731.467,0,.675.007.809.011a7.265,7.265,0,0,0,.917-.041l.726-.05v2.572l-.633.043a8,8,0,0,1-1.051.042c-.127,0-.321-.011-.768-.011-2.235,0-12.837-.183-14.134-3.589-.7.416-.881.722-.884.8.017.756,4.732,3.244,15.018,3.244.523,0,.734.009.871.014a7.049,7.049,0,0,0,.858-.034l.723-.047v2.565l-.636.041a8.148,8.148,0,0,1-1.064.039c-.124,0-.311-.01-.752-.01-4.907,0-11.454-.691-15.018-2.577v24.24c.013.757,4.719,3.247,15.018,3.247h.706c.089-.013.225-.03.683-.059l.723-.047v2.565l-.636.041c-.486.031-.591.047-.631.053A1.846,1.846,0,0,1,1550.872,2834.45Zm15.736-32.67a1.9,1.9,0,0,1-.15.262l.15-.11Zm-32.459.123.114.088a1.833,1.833,0,0,1-.114-.2Zm33.139-.742h0Zm-29.471-2.79-.16.553a5.69,5.69,0,0,1,2.3-1.152C1539.178,2797.953,1538.461,2798.153,1537.818,2798.37Z" transform="translate(-1532.789 -2795.35)" fill="#343434"/>
      </g>
    </g>
  </g>
</svg>
