<svg xmlns="http://www.w3.org/2000/svg" xmlns:xlink="http://www.w3.org/1999/xlink" width="45" height="45" viewBox="0 0 45 45">
  <defs>
    <clipPath id="clip-path">
      <rect id="Rectangle_5748" data-name="Rectangle 5748" width="45" height="45" transform="translate(442 113)" fill="#fff" stroke="#707070" stroke-width="1"/>
    </clipPath>
  </defs>
  <g id="rivers" transform="translate(-442 -113)" clip-path="url(#clip-path)">
    <g id="ocean-waves-icon" transform="translate(530.003 134.447)">
      <path id="Path_27997" data-name="Path 27997" d="M4.519,12.887a.662.662,0,0,1-.067-1.321,4.1,4.1,0,0,0,2.3-.8A5.514,5.514,0,0,0,8.336,8.726a.661.661,0,0,1,.884-.307.681.681,0,0,1,.327.35,4.9,4.9,0,0,0,2.382,2.306,4.24,4.24,0,0,0,1.712.37,3.856,3.856,0,0,0,.828-.09.445.445,0,0,1-.01-.093A11.58,11.58,0,0,1,15.871,5.52a11.961,11.961,0,0,1,4.5-4.4l.02-.01h0A10.5,10.5,0,0,1,22.371.3,7.535,7.535,0,0,1,24.279,0,4.9,4.9,0,0,1,27.4.928,3.617,3.617,0,0,1,28.614,2.55a3.216,3.216,0,0,1,.077,1.975,3.956,3.956,0,0,1-1.585,2.142,3.309,3.309,0,0,1-1.6.607A2.741,2.741,0,0,1,22.958,6.12a4.437,4.437,0,0,1-.737-2.189.5.5,0,1,1,.988-.093,3.478,3.478,0,0,0,.561,1.705,1.765,1.765,0,0,0,.751.617,1.814,1.814,0,0,0,.894.13,2.3,2.3,0,0,0,1.114-.43,3,3,0,0,0,1.208-1.6,2.235,2.235,0,0,0-.053-1.371A2.613,2.613,0,0,0,26.8,1.716c-6.627-3.6-10.444,7.935-2.336,8.939a9.514,9.514,0,0,0,1.9-1.969.66.66,0,0,1,.924-.137.686.686,0,0,1,.21.26h0a4.613,4.613,0,0,0,2.079,2.282,3.593,3.593,0,0,0,1.548.39,3.733,3.733,0,0,0,1.6-.337,5.407,5.407,0,0,0,2.516-2.609.659.659,0,0,1,1.2.057h0a5.258,5.258,0,0,0,1.595,2.359,2.832,2.832,0,0,0,2.2.5.663.663,0,1,1,.19,1.311,4.094,4.094,0,0,1-3.183-.751,5.53,5.53,0,0,1-1.488-1.775,6.215,6.215,0,0,1-2.493,2.115,4.942,4.942,0,0,1-4.294-.08,5.664,5.664,0,0,1-2.192-2.005,8.736,8.736,0,0,1-2.326,1.965,4.747,4.747,0,0,1-2.569.637,4.43,4.43,0,0,1-2.416-.914,7.042,7.042,0,0,1-1.5-1.568,5.389,5.389,0,0,1-2.1,1.865,5.05,5.05,0,0,1-2.242.517,5.582,5.582,0,0,1-2.242-.477,6.094,6.094,0,0,1-2.442-1.975,6.145,6.145,0,0,1-1.4,1.508,5.378,5.378,0,0,1-3.02,1.064ZM.692,19.7a.662.662,0,0,1-.067-1.321,4.1,4.1,0,0,0,2.3-.8A5.514,5.514,0,0,0,4.509,15.54a.661.661,0,0,1,.884-.307.681.681,0,0,1,.327.35A4.9,4.9,0,0,0,8.1,17.889a4.24,4.24,0,0,0,1.712.37,3.72,3.72,0,0,0,1.662-.384,4.4,4.4,0,0,0,2.035-2.252.662.662,0,0,1,.871-.34.654.654,0,0,1,.32.3A6.566,6.566,0,0,0,16.438,17.7a3.126,3.126,0,0,0,1.7.657A3.447,3.447,0,0,0,20,17.882,8.408,8.408,0,0,0,22.541,15.5a.66.66,0,0,1,.924-.137.686.686,0,0,1,.21.26h0A4.613,4.613,0,0,0,25.754,17.9a3.593,3.593,0,0,0,1.548.39,3.733,3.733,0,0,0,1.6-.337,5.407,5.407,0,0,0,2.516-2.609.659.659,0,0,1,1.2.057h0a5.258,5.258,0,0,0,1.595,2.359,2.832,2.832,0,0,0,2.2.5.663.663,0,0,1,.19,1.311,4.094,4.094,0,0,1-3.183-.751,5.53,5.53,0,0,1-1.488-1.775,6.215,6.215,0,0,1-2.493,2.115,4.942,4.942,0,0,1-4.294-.08,5.664,5.664,0,0,1-2.192-2.005,8.736,8.736,0,0,1-2.326,1.965,4.747,4.747,0,0,1-2.569.637,4.43,4.43,0,0,1-2.416-.914,7.042,7.042,0,0,1-1.5-1.568,5.389,5.389,0,0,1-2.1,1.865,5.027,5.027,0,0,1-2.246.524,5.582,5.582,0,0,1-2.242-.477,6.094,6.094,0,0,1-2.442-1.975,6.145,6.145,0,0,1-1.4,1.508A5.415,5.415,0,0,1,.692,19.7Z" transform="translate(-86 -12)" fill="#fd6f02"/>
      <path id="Path_28000" data-name="Path 28000" d="M.692,49.627a.662.662,0,1,1-.067-1.321,4.1,4.1,0,0,0,2.3-.8,5.514,5.514,0,0,0,1.585-2.042.661.661,0,0,1,.884-.307.681.681,0,0,1,.327.35A4.9,4.9,0,0,0,8.1,47.815a4.24,4.24,0,0,0,1.712.37,3.72,3.72,0,0,0,1.662-.384,4.4,4.4,0,0,0,2.035-2.252.662.662,0,0,1,.871-.34.654.654,0,0,1,.32.3,6.566,6.566,0,0,0,1.735,2.119,3.126,3.126,0,0,0,1.7.657A3.447,3.447,0,0,0,20,47.809a8.408,8.408,0,0,0,2.539-2.386.66.66,0,0,1,.924-.137.686.686,0,0,1,.21.26h0a4.613,4.613,0,0,0,2.079,2.282,3.593,3.593,0,0,0,1.548.39,3.733,3.733,0,0,0,1.6-.337,5.407,5.407,0,0,0,2.516-2.609.659.659,0,0,1,1.2.057h0a5.258,5.258,0,0,0,1.595,2.359,2.832,2.832,0,0,0,2.2.5.663.663,0,0,1,.19,1.311,4.094,4.094,0,0,1-3.183-.751,5.53,5.53,0,0,1-1.488-1.775,6.215,6.215,0,0,1-2.493,2.115,4.942,4.942,0,0,1-4.294-.08A5.664,5.664,0,0,1,22.961,47a8.736,8.736,0,0,1-2.326,1.965,4.747,4.747,0,0,1-2.569.637,4.43,4.43,0,0,1-2.416-.914,7.042,7.042,0,0,1-1.5-1.568,5.389,5.389,0,0,1-2.1,1.865,5.027,5.027,0,0,1-2.246.524,5.582,5.582,0,0,1-2.242-.477,6.094,6.094,0,0,1-2.442-1.975,6.145,6.145,0,0,1-1.4,1.508A5.415,5.415,0,0,1,.692,49.627Z" transform="translate(-86 -34.586)" fill="#343434"/>
    </g>
  </g>
</svg>
