<svg xmlns="http://www.w3.org/2000/svg" xmlns:xlink="http://www.w3.org/1999/xlink" width="45" height="45" viewBox="0 0 45 45">
  <defs>
    <clipPath id="clip-path">
      <rect id="Rectangle_5759" data-name="Rectangle 5759" width="45" height="45" transform="translate(442 113)" fill="#fff" stroke="#707070" stroke-width="1"/>
    </clipPath>
  </defs>
  <g id="road_polygon" transform="translate(-442 -113)" clip-path="url(#clip-path)">
    <g id="Group_13461" data-name="Group 13461" transform="translate(1133 -2593)">
      <path id="Path_28050" data-name="Path 28050" d="M33.309,45.394a7.691,7.691,0,1,1-7.691,7.691,7.057,7.057,0,0,1,3.343-6.259l-1.9-3.19h-5a6,6,0,0,0,.761-2.569h5.112a1.155,1.155,0,0,1,.581.157l.537-1.118.12-.013h0l.147-.02A3.149,3.149,0,0,0,31.851,37.9a3.35,3.35,0,0,0,.13-1.465,3.477,3.477,0,0,0-.474-1.358,3.731,3.731,0,0,0-.377-.51h1.278v.007a1.177,1.177,0,0,1,.49.11,1.156,1.156,0,0,1,.557,1.542l-3.393,7.147,1.3,2.269a7.5,7.5,0,0,1,1.945-.25ZM13.763,43.632H12.172l-.944,2.746a8.028,8.028,0,0,1,.971.547l-.227.48a3.32,3.32,0,0,0-.414,1.962,5.347,5.347,0,0,0-1.515-1.1h0L8.121,52.608A1.161,1.161,0,1,1,6,51.673l1.748-3.951H7.691a5.364,5.364,0,1,0,5.362,5.365,5.417,5.417,0,0,0-.21-1.5c.05.037.1.073.153.11a3.591,3.591,0,0,0,1.435.574,3.825,3.825,0,0,0,.918.04c.023.254.033.51.033.774a7.691,7.691,0,1,1-7.691-7.694,7.882,7.882,0,0,1,1.054.07l1.365-3.707a1.151,1.151,0,0,1,.837-.671,13.729,13.729,0,0,0,2.105,1.655c.207.13.5.314.874.544l-.163.347Zm-6.38-7.811h.774a5.41,5.41,0,0,0,.163,1.144A7.22,7.22,0,0,0,9.4,39.278H7.387A1.4,1.4,0,0,1,6,37.877H6v-.647H6a1.382,1.382,0,0,1,.414-.994,1.361,1.361,0,0,1,.974-.414ZM32.732,47.75,34.6,50.622a1.16,1.16,0,1,1-1.945,1.265L30.473,48.53a5.365,5.365,0,1,0,2.836-.811,4.743,4.743,0,0,0-.577.03Z" transform="translate(-688.521 2686.344)" fill="#343434" fill-rule="evenodd"/>
      <path id="Path_28051" data-name="Path 28051" d="M31.58,10.207,38.6,5.075a4.026,4.026,0,0,1,2.429-.764,2.513,2.513,0,0,1,1.648,1.038c1.521,1.9,2.276,4.5,3.116,7.377l2.96-.347a1.385,1.385,0,0,1,.4,2.736l-3.05.337c-1.361.153-2.356.531-3.1-1L41.346,10.3l-4.761,3.31a.589.589,0,0,0-.043.918l3.573,2.6c.47.317.868.541.964,1.171.147.948-3.864,7.244-4.564,8.458-1.231,1.368-3.567.13-2.6-1.528L36.635,19.5c-.807-.48-1.592-.961-2.346-1.441-2.516-1.595-5.862-5.255-2.709-7.854ZM47.415,0A3.317,3.317,0,1,1,44.1,3.317,3.316,3.316,0,0,1,47.415,0Z" transform="translate(-708.536 2709.38)" fill="#fd6f02" fill-rule="evenodd"/>
    </g>
  </g>
</svg>
