<svg xmlns="http://www.w3.org/2000/svg" xmlns:xlink="http://www.w3.org/1999/xlink" width="45" height="45" viewBox="0 0 45 45">
  <defs>
    <clipPath id="clip-path">
      <rect id="Rectangle_5746" data-name="Rectangle 5746" width="45" height="45" transform="translate(442 113)" fill="#fff" stroke="#707070" stroke-width="1"/>
    </clipPath>
  </defs>
  <g id="satellite_imaginary" transform="translate(-442 -113)" clip-path="url(#clip-path)">
    <g id="Group_13349" data-name="Group 13349" transform="translate(447.413 115.727)">
      <path id="Path_27979" data-name="Path 27979" d="M102.367,335.211l-5.151,10.637h17.963v0h.3l-2.8-6.45a18.9,18.9,0,0,1-10.3-4.184Z" transform="translate(-96.669 -304.939)" fill="#f07a1a" fill-rule="evenodd"/>
      <path id="Path_27980" data-name="Path 27980" d="M92.428,130.382a17.7,17.7,0,0,1,2.258-11.166.636.636,0,0,1,1.025-.18l23.349,23.349h0a.634.634,0,0,1-.128.994,17.69,17.69,0,0,1-26.5-13Z" transform="translate(-92.284 -112.587)" fill="#343434"/>
      <path id="Path_27981" data-name="Path 27981" d="M222.1,183.2a1.112,1.112,0,1,1,1.573,1.573l-4.43,4.43a1.112,1.112,0,0,1-1.573-1.573Z" transform="translate(-203.462 -169.506)" fill="#343434" fill-rule="evenodd"/>
      <path id="Path_27982" data-name="Path 27982" d="M257.563,160.294a2.5,2.5,0,1,1-1.77.733A2.5,2.5,0,0,1,257.563,160.294Z" transform="translate(-236.996 -149.433)" fill="#343434"/>
      <path id="Path_27983" data-name="Path 27983" d="M281.032,72.227a1.112,1.112,0,1,1-.513-2.164,3.843,3.843,0,0,1,1.777-.012,3.433,3.433,0,0,1,2.561,2.56,3.847,3.847,0,0,1-.012,1.777,1.112,1.112,0,0,1-2.164-.513,1.634,1.634,0,0,0,.012-.752,1.192,1.192,0,0,0-.909-.909,1.632,1.632,0,0,0-.751.012Zm-.626-4.078a5.938,5.938,0,0,1,2.742-.031,4.831,4.831,0,0,1,3.641,3.64,5.94,5.94,0,0,1-.031,2.742,1.112,1.112,0,1,0,2.164.513,8.151,8.151,0,0,0,.031-3.768,7.072,7.072,0,0,0-5.293-5.292,8.15,8.15,0,0,0-3.768.031,1.112,1.112,0,1,0,.513,2.164Zm.877-3.264a8.125,8.125,0,0,1,3.752-.041,6.679,6.679,0,0,1,5.028,5.027,8.128,8.128,0,0,1-.041,3.753,1.112,1.112,0,1,0,2.164.513,10.338,10.338,0,0,0,.041-4.779,8.92,8.92,0,0,0-6.679-6.678,10.337,10.337,0,0,0-4.778.041,1.112,1.112,0,0,0,.513,2.164Z" transform="translate(-258.313 -62.42)" fill="#343434" fill-rule="evenodd"/>
    </g>
  </g>
</svg>
