<svg xmlns="http://www.w3.org/2000/svg" xmlns:xlink="http://www.w3.org/1999/xlink" width="45" height="45" viewBox="0 0 45 45">
  <defs>
    <clipPath id="clip-path">
      <rect id="Rectangle_5753" data-name="Rectangle 5753" width="45" height="45" transform="translate(442 113)" fill="#fff" stroke="#707070" stroke-width="1"/>
    </clipPath>
  </defs>
  <g id="slum" transform="translate(-442 -113)" clip-path="url(#clip-path)">
    <g id="noun-slum-2858027" transform="translate(347.808 98)">
      <path id="Path_28001" data-name="Path 28001" d="M108.55,385H96.25v12.3h3.417v-1.367a2.733,2.733,0,1,1,5.467,0V397.3h3.417Zm-6.833,3.417H98.3V387.05h3.417Zm4.783,2.733h-2.733v-1.367H106.5Z" transform="translate(0 -338.8)" fill="#343434"/>
      <path id="Path_28002" data-name="Path 28002" d="M283.55,385h-12.3v12.3h3.417v-1.367a2.733,2.733,0,0,1,5.467,0V397.3h3.417Zm-2.05,6.15h-1.367v-1.367H281.5Z" transform="translate(-161.333 -338.8)" fill="#343434"/>
      <path id="Path_28003" data-name="Path 28003" d="M458.55,397.3V385h-12.3v12.3h3.417v-1.367a2.733,2.733,0,0,1,5.467,0V397.3Zm-8.2-8.2h-1.367v-1.367h1.367Zm4.783,0H456.5v1.367h-1.367Z" transform="translate(-322.667 -338.8)" fill="#343434"/>
      <path id="Path_28004" data-name="Path 28004" d="M192.633,220.933V222.3h3.417V210h-12.3v12.3h3.417v-1.367a2.733,2.733,0,0,1,5.467,0Zm-.683-6.833h1.367v1.367H191.95Zm-3.417,0h-1.367v-1.367h1.367Z" transform="translate(-80.667 -177.467)" fill="#fd6f02"/>
      <path id="Path_28005" data-name="Path 28005" d="M367.633,220.933V222.3h3.417V210h-12.3v12.3h3.417v-1.367a2.733,2.733,0,0,1,5.467,0Zm-1.367-8.2H369V214.1h-2.733Z" transform="translate(-242 -177.467)" fill="#fd6f02"/>
      <path id="Path_28006" data-name="Path 28006" d="M442.967,20.233V18.867h-2.05V17.5H439.55v1.367H437.5v1.367h2.05V21.6H437.5v1.367h2.05v1.367H437.5V25.7h2.05v5.467h1.367V25.7h2.05V24.333h-2.05V22.967h2.05V21.6h-2.05V20.233Z" transform="translate(-314.6)" fill="#343434"/>
      <path id="Path_28007" data-name="Path 28007" d="M113.75,74.1v1.367h1.367V93.233h1.367V75.467h1.367V74.1h-1.367V72.733h1.367V71.367h-1.367V70h-1.367v1.367H113.75v1.367h1.367V74.1Z" transform="translate(-16.133 -48.4)" fill="#343434"/>
      <path id="Path_28008" data-name="Path 28008" d="M182.89,57.2c1.271.125,2.549.187,3.828.187s2.555-.062,3.823-.187a39.329,39.329,0,0,0,11.127-2.781l-.521-1.264a37.762,37.762,0,0,1-18.123,2.685Z" transform="translate(-79.874 -32.874)" fill="#343434"/>
      <path id="Path_28009" data-name="Path 28009" d="M190.552,98.594a39.3,39.3,0,0,0,11.127-2.781l-.521-1.264a37.762,37.762,0,0,1-18.123,2.685l-.133,1.36c1.271.125,2.549.187,3.828.187s2.555-.062,3.823-.187Z" transform="translate(-79.885 -71.032)" fill="#343434"/>
      <path id="Path_28010" data-name="Path 28010" d="M525.725,47.948a10.146,10.146,0,0,0,1.835-.169l-.247-1.344a8.7,8.7,0,0,1-6.337-1.267l-.746,1.145a10.056,10.056,0,0,0,5.5,1.634Z" transform="translate(-390.868 -25.507)" fill="#343434"/>
      <path id="Path_28011" data-name="Path 28011" d="M524.136,88.184a8.654,8.654,0,0,1-3.167-1.267l-.747,1.145a10.058,10.058,0,0,0,7.332,1.466l-.249-1.344a8.686,8.686,0,0,1-3.169,0Z" transform="translate(-390.862 -63.996)" fill="#343434"/>
    </g>
  </g>
</svg>
