<svg xmlns="http://www.w3.org/2000/svg" xmlns:xlink="http://www.w3.org/1999/xlink" width="45" height="45" viewBox="0 0 45 45">
  <defs>
    <clipPath id="clip-path">
      <rect id="Rectangle_5747" data-name="Rectangle 5747" width="45" height="45" transform="translate(442 113)" fill="#fff" stroke="#707070" stroke-width="1"/>
    </clipPath>
  </defs>
  <g id="state_boundary" transform="translate(-442 -113)" clip-path="url(#clip-path)">
    <g id="Group_13438" data-name="Group 13438" transform="translate(243.918 69.066)">
      <path id="Path_27984" data-name="Path 27984" d="M227,58.835h-12.29a.631.631,0,0,0-.63.631v.675a.632.632,0,0,0,.63.63h.338V72.385h3.871V69.159h3.871v3.226h3.872V60.771H227a.63.63,0,0,0,.63-.63v-.675a.631.631,0,0,0-.63-.631ZM224.728,66.9h-7.742v-.968h7.742Zm0-2.581h-7.742v-.968h7.742Z" fill="#343434"/>
      <path id="Path_27985" data-name="Path 27985" d="M215.649,82.584a21.913,21.913,0,0,1,4.724-.591V77.828a39.959,39.959,0,0,0-7.7.809,13.216,13.216,0,0,0,2.972,3.947Z" fill="#343434"/>
      <path id="Path_27986" data-name="Path 27986" d="M228.99,78.616c-.091-.019-.176-.042-.268-.06h0a40.291,40.291,0,0,0-7.382-.73v4.167a22.016,22.016,0,0,1,4.672.578,13.059,13.059,0,0,0,2.977-3.955Z" fill="#343434"/>
      <path id="Path_27987" data-name="Path 27987" d="M212.26,77.732a40.809,40.809,0,0,1,8.113-.872V73.03h-9.147A18.223,18.223,0,0,0,212.26,77.732Z" fill="#343434"/>
      <path id="Path_27988" data-name="Path 27988" d="M221.341,73.03v3.828a41.278,41.278,0,0,1,7.57.748c.169.034.327.076.494.112a18.193,18.193,0,0,0,1.028-4.688Z" fill="#343434"/>
      <path id="Path_27989" data-name="Path 27989" d="M206.957,79.375a28.278,28.278,0,0,1,4.349-1.425,19.506,19.506,0,0,1-1.053-4.92h-6.171a14.632,14.632,0,0,0,2.875,6.345Z" fill="#343434"/>
      <path id="Path_27990" data-name="Path 27990" d="M207.6,80.15a16.731,16.731,0,0,0,4.663,3.666,13.464,13.464,0,0,1,2.286-.923,14.32,14.32,0,0,1-2.863-4.042,28,28,0,0,0-4.086,1.3Z" fill="#343434"/>
      <path id="Path_27991" data-name="Path 27991" d="M213.414,84.375a18.547,18.547,0,0,0,14.886,0,20.124,20.124,0,0,0-14.886,0Z" fill="#343434"/>
      <path id="Path_27992" data-name="Path 27992" d="M230.359,77.934a28.458,28.458,0,0,1,4.4,1.441,14.638,14.638,0,0,0,2.875-6.345h-6.227a19.453,19.453,0,0,1-1.047,4.9Z" fill="#343434"/>
      <path id="Path_27993" data-name="Path 27993" d="M227.114,82.878a12.076,12.076,0,0,1,2.245.981,16.732,16.732,0,0,0,4.751-3.708,28.149,28.149,0,0,0-4.136-1.312,14.228,14.228,0,0,1-2.86,4.039Z" fill="#343434"/>
      <path id="Path_27994" data-name="Path 27994" d="M222.524,45.934a3.374,3.374,0,0,0-2.151.737v6.358h-.161a3.87,3.87,0,0,0-3.871,3.871v1.29h9.033V56.9a3.87,3.87,0,0,0-3.872-3.871h-.161V50.56a2.867,2.867,0,0,1,1.183-.205c1.1.053,1.642.766,2.868.737a3.406,3.406,0,0,0,1.433-.368V46.3a3.406,3.406,0,0,1-1.433.368c-1.226.029-1.768-.684-2.868-.737Z" fill="#fd6f02"/>
      <path id="Path_27995" data-name="Path 27995" d="M206.662,64v.645a.644.644,0,0,0,.646.645h.645v7.1H214.4V63.352h-7.1A.645.645,0,0,0,206.662,64Zm5.162,2.581h1.29v1.29h-1.29Zm0,2.581h1.29v1.29h-1.29Zm-2.581-2.581h1.291v1.29h-1.291Zm0,2.581h1.291v1.29h-1.291Z" fill="#343434"/>
      <path id="Path_27996" data-name="Path 27996" d="M234.406,63.352h-7.1v9.033h6.452v-7.1h.645a.644.644,0,0,0,.646-.645V64a.645.645,0,0,0-.646-.645Zm-4.516,7.1H228.6v-1.29h1.291Zm0-2.581H228.6v-1.29h1.291Zm2.581,2.581H231.18v-1.29h1.291Zm0-2.581H231.18v-1.29h1.291Z" fill="#343434"/>
    </g>
  </g>
</svg>
