<svg xmlns="http://www.w3.org/2000/svg" xmlns:xlink="http://www.w3.org/1999/xlink" width="45" height="45" viewBox="0 0 45 45">
  <defs>
    <clipPath id="clip-path">
      <rect id="Rectangle_5808" data-name="Rectangle 5808" width="45" height="45" transform="translate(442 113)" fill="#fff" stroke="#707070" stroke-width="1"/>
    </clipPath>
  </defs>
  <g id="Tehsil" transform="translate(-442 -113)" clip-path="url(#clip-path)">
    <g id="Group_13500" data-name="Group 13500" transform="translate(4888.591 -3308.714)">
      <path id="Path_28121" data-name="Path 28121" d="M-4211.22,3492.326h23.955v1.133h-23.955Z" transform="translate(-215.059 -64.518)" fill="#fd6f02"/>
      <path id="Path_28122" data-name="Path 28122" d="M-4409.99,3428.939l-4.411,4.411a1.605,1.605,0,0,0-.473,1.143,1.6,1.6,0,0,0,.473,1.142,1.606,1.606,0,0,0,1.142.473,1.606,1.606,0,0,0,1.143-.473l4.271-4.271a1.588,1.588,0,0,0,.294.4,1.61,1.61,0,0,0,1.143.473,1.61,1.61,0,0,0,1.143-.473l.39-.39a1.607,1.607,0,0,0,.287.39,1.607,1.607,0,0,0,1.143.473,1.6,1.6,0,0,0,1.143-.473l.585-.584,4.428,4.427a1.6,1.6,0,0,0,1.142.474,1.607,1.607,0,0,0,1.143-.474,1.619,1.619,0,0,0,0-2.286l-4.427-4.427,4.428-4.427a1.607,1.607,0,0,0,.473-1.143,1.6,1.6,0,0,0-.473-1.142,1.608,1.608,0,0,0-1.143-.474,1.6,1.6,0,0,0-1.142.474l-3.181,3.181a1.623,1.623,0,0,0-.288-.39,1.617,1.617,0,0,0-2.285,0l-.4.4a1.631,1.631,0,0,0-.294-.4,1.618,1.618,0,0,0-2.285,0l-1.65,1.651-4.407-4.407a1.607,1.607,0,0,0-1.143-.474,1.606,1.606,0,0,0-1.143.474,1.62,1.62,0,0,0,0,2.286l3.3,3.3m15.264,6.32a.484.484,0,0,1,0,.684.479.479,0,0,1-.341.142.482.482,0,0,1-.341-.142l-4.428-4.427.684-.684Zm-17.763-11.1a.48.48,0,0,1,.341-.142.479.479,0,0,1,.341.142l4.407,4.407-.683.683-4.406-4.406a.486.486,0,0,1,0-.685Z" transform="translate(-28.98 0)" fill="#343434"/>
      <path id="Path_28123" data-name="Path 28123" d="M-4446.591,3846.991h5.525v1.133h-5.525Z" transform="translate(0 -388.578)" fill="#fd6f02"/>
      <path id="Path_28124" data-name="Path 28124" d="M-4398.34,3782.47l3.335-3.335a1.6,1.6,0,0,0,.474-1.143,1.6,1.6,0,0,0-.474-1.143,1.6,1.6,0,0,0-1.142-.473,1.6,1.6,0,0,0-1.142.473l-3.182,3.181a1.6,1.6,0,0,0-.287-.39,1.618,1.618,0,0,0-2.285,0l-.4.4a1.627,1.627,0,0,0-.295-.4,1.618,1.618,0,0,0-2.285,0l-1.65,1.651-4.407-4.407a1.606,1.606,0,0,0-1.142-.474,1.6,1.6,0,0,0-1.142.474,1.619,1.619,0,0,0,0,2.286l4.406,4.407-4.436,4.436a1.6,1.6,0,0,0-.474,1.143,1.6,1.6,0,0,0,.474,1.143,1.606,1.606,0,0,0,1.142.473,1.608,1.608,0,0,0,1.143-.473l4.271-4.271a1.6,1.6,0,0,0,.294.4,1.608,1.608,0,0,0,1.143.473,1.61,1.61,0,0,0,1.143-.473l.39-.39a1.623,1.623,0,0,0,.287.39,1.607,1.607,0,0,0,1.143.473,1.605,1.605,0,0,0,1.143-.473l.585-.585,4.428,4.428a1.6,1.6,0,0,0,1.142.473,1.606,1.606,0,0,0,1.142-.473,1.619,1.619,0,0,0,0-2.286l-4.386-4.386Zm-15.228-4.1a.484.484,0,0,1,0-.684.479.479,0,0,1,.342-.142.477.477,0,0,1,.341.142l4.407,4.406-.683.684Zm17.762,11.1a.479.479,0,0,1-.341.142.482.482,0,0,1-.341-.142l-4.428-4.427.684-.683,4.426,4.426a.485.485,0,0,1,0,.684Z" transform="translate(-28.982 -324.057)" fill="#343434"/>
      <path id="Path_28125" data-name="Path 28125" d="M-4180.934,3605.522h0l3.335-3.335a1.606,1.606,0,0,0,.474-1.143,1.605,1.605,0,0,0-.474-1.142,1.606,1.606,0,0,0-1.143-.474,1.6,1.6,0,0,0-1.142.474l-3.182,3.181a1.589,1.589,0,0,0-.287-.39,1.605,1.605,0,0,0-1.143-.473,1.6,1.6,0,0,0-1.142.473l-.4.4a1.61,1.61,0,0,0-.294-.4,1.617,1.617,0,0,0-2.285,0l-1.651,1.651-4.407-4.407a1.606,1.606,0,0,0-1.143-.474,1.605,1.605,0,0,0-1.142.474,1.619,1.619,0,0,0,0,2.285l4.407,4.407-4.437,4.436a1.6,1.6,0,0,0-.474,1.143,1.6,1.6,0,0,0,.474,1.142,1.6,1.6,0,0,0,1.143.474,1.6,1.6,0,0,0,1.142-.474l4.271-4.27a1.6,1.6,0,0,0,.294.4,1.6,1.6,0,0,0,1.143.473,1.606,1.606,0,0,0,1.142-.473l.39-.39a1.616,1.616,0,0,0,.287.39,1.605,1.605,0,0,0,1.143.473,1.6,1.6,0,0,0,1.142-.473l.585-.585,4.427,4.427a1.606,1.606,0,0,0,1.143.474,1.605,1.605,0,0,0,1.143-.474,1.619,1.619,0,0,0,0-2.285l-4.386-4.386m-14.178-5.233a.484.484,0,0,1,0-.684.477.477,0,0,1,.341-.142.48.48,0,0,1,.342.142l4.407,4.406-.683.684Zm17.763,11.1a.482.482,0,0,1-.342.142.48.48,0,0,1-.341-.142l-4.427-4.427.683-.684,4.426,4.426a.485.485,0,0,1,0,.685Z" transform="translate(-227.627 -162.379)" fill="#343434"/>
      <path id="Path_28126" data-name="Path 28126" d="M-4446.318,3670.041h23.616v1.133h-23.616Z" transform="translate(-0.249 -226.898)" fill="#fd6f02"/>
      <path id="Path_28127" data-name="Path 28127" d="M-4235.67,3848.125h26.047v-1.133h-25" transform="translate(-192.719 -388.578)" fill="#fd6f02"/>
      <path id="Path_28128" data-name="Path 28128" d="M-4016.662,3670.79h7.063v-1.133h-6.012" transform="translate(-392.828 -226.547)" fill="#fd6f02"/>
      <path id="Path_28129" data-name="Path 28129" d="M-4435.257,3507.7h-7.062v1.133h6.011" transform="translate(-3.903 -78.566)" fill="#fd6f02"/>
    </g>
  </g>
</svg>
