<svg xmlns="http://www.w3.org/2000/svg" xmlns:xlink="http://www.w3.org/1999/xlink" width="45" height="45" viewBox="0 0 45 45">
  <defs>
    <clipPath id="clip-path">
      <rect id="Rectangle_5813" data-name="Rectangle 5813" width="45" height="45" transform="translate(442 113)" fill="#fff" stroke="#707070" stroke-width="1"/>
    </clipPath>
  </defs>
  <g id="Tehsil" transform="translate(-442 -113)" clip-path="url(#clip-path)">
    <g id="Group_13499" data-name="Group 13499" transform="translate(3513 -2862.646)">
      <path id="Path_28117" data-name="Path 28117" d="M-3042.646,3150.276a.5.5,0,0,0-.2-.328l-8.575-6.307a.491.491,0,0,0-.585,0l-8.648,6.336a.5.5,0,0,0-.2.327.5.5,0,0,0,.089.373.5.5,0,0,0,.4.207.49.49,0,0,0,.292-.1l8.356-6.122,8.282,6.092a.493.493,0,0,0,.37.091.493.493,0,0,0,.325-.2.5.5,0,0,0,.09-.373Z" transform="translate(-9.3 -147.599)" fill="#343434"/>
      <path id="Path_28118" data-name="Path 28118" d="M-3022.561,3176.116l-6.721-5.034a.439.439,0,0,0-.528,0l-6.776,5.1a.223.223,0,0,0-.088.177v9.012a.221.221,0,0,0,.221.221h4.06a.221.221,0,0,0,.221-.221v-5.133a.222.222,0,0,1,.222-.221h4.754a.222.222,0,0,1,.221.221v5.133a.221.221,0,0,0,.221.221h4.06a.222.222,0,0,0,.222-.221v-9.078a.223.223,0,0,0-.089-.177Z" transform="translate(-31.475 -172.77)" fill="#343434"/>
      <path id="Path_28119" data-name="Path 28119" d="M-2730.217,3150.276a.5.5,0,0,0-.2-.328l-8.575-6.307a.492.492,0,0,0-.586,0l-8.648,6.336a.5.5,0,0,0-.2.327.5.5,0,0,0,.089.373.5.5,0,0,0,.4.207.49.49,0,0,0,.292-.1l8.356-6.122,8.282,6.092a.493.493,0,0,0,.369.091.493.493,0,0,0,.325-.2.5.5,0,0,0,.089-.373Z" transform="translate(-295.789 -147.599)" fill="#343434"/>
      <path id="Path_28120" data-name="Path 28120" d="M-2710.133,3176.116l-6.721-5.034a.439.439,0,0,0-.528,0l-6.776,5.1a.222.222,0,0,0-.088.177v9.012a.221.221,0,0,0,.221.221h4.06a.221.221,0,0,0,.221-.221v-5.133a.222.222,0,0,1,.221-.221h4.755a.222.222,0,0,1,.221.221v5.133a.221.221,0,0,0,.221.221h4.06a.221.221,0,0,0,.221-.221v-9.078a.223.223,0,0,0-.089-.177Z" transform="translate(-317.964 -172.77)" fill="#343434"/>
      <rect id="Rectangle_5811" data-name="Rectangle 5811" width="44.514" height="1.494" transform="translate(-3071 3014.142)" fill="#343434"/>
      <rect id="Rectangle_5812" data-name="Rectangle 5812" width="44.514" height="1.494" transform="translate(-3071 3017.546)" fill="#343434"/>
      <path id="Path_28065" data-name="Path 28065" d="M-2875.089,2982.581a6.533,6.533,0,0,0-6.533,6.533h0c0,3.609,6.533,14.652,6.533,14.652s6.534-11.044,6.534-14.652a6.534,6.534,0,0,0-6.534-6.533Zm-.087,9.744a3.582,3.582,0,0,1-3.582-3.582,3.582,3.582,0,0,1,3.582-3.582,3.581,3.581,0,0,1,3.582,3.582A3.582,3.582,0,0,1-2875.176,2992.326Z" transform="translate(-173.654 0)" fill="#fd6f02"/>
    </g>
  </g>
</svg>
