<svg xmlns="http://www.w3.org/2000/svg" xmlns:xlink="http://www.w3.org/1999/xlink" width="45" height="45" viewBox="0 0 45 45">
  <defs>
    <clipPath id="clip-path">
      <rect id="Rectangle_5785" data-name="Rectangle 5785" width="45" height="45" transform="translate(442 113)" fill="#fff" stroke="#707070" stroke-width="1"/>
    </clipPath>
  </defs>
  <g id="tika_sheets" transform="translate(-442 -113)" clip-path="url(#clip-path)">
    <g id="Group_13472" data-name="Group 13472" transform="translate(714.072 -2096.73)">
      <path id="Path_28081" data-name="Path 28081" d="M-265.024,2211.73a2.92,2.92,0,0,0-2.865,2.414h-2.431a.375.375,0,0,0-.052,0,.487.487,0,0,0-.46.512.487.487,0,0,0,.512.46h2.4v8.336h-2.4a.532.532,0,0,0-.1,0,.489.489,0,0,0-.329.179.489.489,0,0,0-.106.359.49.49,0,0,0,.18.329.489.489,0,0,0,.36.1h2.4v8.319h-2.4a.375.375,0,0,0-.052,0,.487.487,0,0,0-.46.512.487.487,0,0,0,.512.46h2.4v8.319h-2.4a.485.485,0,0,0-.349.14.487.487,0,0,0-.145.346.487.487,0,0,0,.145.346.487.487,0,0,0,.349.14h2.4v8.336h-2.4a.5.5,0,0,0-.1,0,.489.489,0,0,0-.329.179.489.489,0,0,0-.106.359.489.489,0,0,0,.18.329.488.488,0,0,0,.36.105h2.431a2.908,2.908,0,0,0,2.865,2.414h28.5a2.9,2.9,0,0,0,2.9-2.9v-37.2a2.9,2.9,0,0,0-2.9-2.9Zm0,.973h3.63v41.054h-3.63a1.9,1.9,0,0,1-1.858-1.441h2.779a.486.486,0,0,0,.348-.14.487.487,0,0,0,.145-.346.487.487,0,0,0-.145-.346.488.488,0,0,0-.348-.14h-2.848v-8.336h2.848a.486.486,0,0,0,.348-.14.486.486,0,0,0,.145-.346.486.486,0,0,0-.145-.346.487.487,0,0,0-.348-.14h-2.848v-8.319h2.848a.489.489,0,0,0,.348-.14.487.487,0,0,0,.145-.346.486.486,0,0,0-.145-.346.487.487,0,0,0-.348-.14h-2.848v-8.319h2.848a.487.487,0,0,0,.348-.14.486.486,0,0,0,.145-.346.486.486,0,0,0-.145-.346.487.487,0,0,0-.348-.14h-2.848v-8.336h2.848a.491.491,0,0,0,.348-.14.487.487,0,0,0,.145-.347.485.485,0,0,0-.145-.346.486.486,0,0,0-.348-.14h-2.779a1.914,1.914,0,0,1,1.858-1.441Zm9.291,6.13h16.984a.486.486,0,0,1,.348.14.486.486,0,0,1,.145.346.486.486,0,0,1-.145.346.486.486,0,0,1-.348.14h-16.9a.488.488,0,0,1-.53-.443.489.489,0,0,1,.443-.53Zm0,5.557h16.984a.486.486,0,0,1,.348.14.486.486,0,0,1,.145.346.487.487,0,0,1-.145.346.486.486,0,0,1-.348.14h-16.9a.488.488,0,0,1-.53-.443.489.489,0,0,1,.443-.53Zm0,5.557h16.984a.486.486,0,0,1,.348.14.487.487,0,0,1,.145.346.487.487,0,0,1-.145.346.487.487,0,0,1-.348.14h-16.9a.489.489,0,0,1-.53-.443.489.489,0,0,1,.443-.53Zm0,5.557h16.984a.487.487,0,0,1,.348.14.487.487,0,0,1,.145.347.486.486,0,0,1-.145.346.486.486,0,0,1-.348.14h-16.9a.489.489,0,0,1-.53-.443.489.489,0,0,1,.443-.53Zm0,5.557h16.984a.486.486,0,0,1,.348.14.487.487,0,0,1,.145.347.486.486,0,0,1-.145.346.487.487,0,0,1-.348.14h-16.9a.489.489,0,0,1-.53-.443.489.489,0,0,1,.443-.53Zm0,5.557h16.984a.486.486,0,0,1,.348.14.487.487,0,0,1,.145.347.487.487,0,0,1-.145.346.486.486,0,0,1-.348.14h-16.9a.488.488,0,0,1-.53-.442.489.489,0,0,1,.443-.53Z" fill="#343434"/>
      <path id="Path_28082" data-name="Path 28082" d="M-261.335,2211.73h-3.689a2.92,2.92,0,0,0-2.865,2.414h-2.431a.375.375,0,0,0-.052,0,.487.487,0,0,0-.46.512.487.487,0,0,0,.512.46h2.4v8.336h-2.4a.532.532,0,0,0-.1,0,.489.489,0,0,0-.329.179.489.489,0,0,0-.106.359.49.49,0,0,0,.18.329.489.489,0,0,0,.36.1h2.4v8.319h-2.4a.375.375,0,0,0-.052,0,.487.487,0,0,0-.46.512.487.487,0,0,0,.512.46h2.4v8.319h-2.4a.485.485,0,0,0-.349.14.487.487,0,0,0-.145.346.487.487,0,0,0,.145.346.487.487,0,0,0,.349.14h2.4v8.336h-2.4a.5.5,0,0,0-.1,0,.489.489,0,0,0-.329.179.489.489,0,0,0-.106.359.489.489,0,0,0,.18.329.488.488,0,0,0,.36.105h2.431a2.908,2.908,0,0,0,2.865,2.414h3.589l.04-.973h-3.63a1.9,1.9,0,0,1-1.858-1.441h2.779a.486.486,0,0,0,.348-.14.487.487,0,0,0,.145-.346.487.487,0,0,0-.145-.346.488.488,0,0,0-.348-.14h-2.848v-8.336h2.848a.486.486,0,0,0,.348-.14.486.486,0,0,0,.145-.346.486.486,0,0,0-.145-.346.487.487,0,0,0-.348-.14h-2.848v-8.319h2.848a.489.489,0,0,0,.348-.14.487.487,0,0,0,.145-.346.486.486,0,0,0-.145-.346.487.487,0,0,0-.348-.14h-2.848v-8.319h2.848a.487.487,0,0,0,.348-.14.486.486,0,0,0,.145-.346.486.486,0,0,0-.145-.346.487.487,0,0,0-.348-.14h-2.848v-8.336h2.848a.491.491,0,0,0,.348-.14.487.487,0,0,0,.145-.347.485.485,0,0,0-.145-.346.486.486,0,0,0-.348-.14h-2.779a1.914,1.914,0,0,1,1.858-1.441h3.63Z" fill="#f07a1a"/>
    </g>
  </g>
</svg>
