<svg xmlns="http://www.w3.org/2000/svg" xmlns:xlink="http://www.w3.org/1999/xlink" width="45" height="45" viewBox="0 0 45 45">
  <defs>
    <clipPath id="clip-path">
      <rect id="Rectangle_5781" data-name="Rectangle 5781" width="45" height="45" transform="translate(442 113)" fill="#fff" stroke="#707070" stroke-width="1"/>
    </clipPath>
  </defs>
  <g id="unaccounted_land" transform="translate(-442 -113)" clip-path="url(#clip-path)">
    <g id="Group_13466" data-name="Group 13466" transform="translate(1372.361 -1771.07)">
      <path id="Path_28065" data-name="Path 28065" d="M-773.2,1887.112a7.468,7.468,0,0,0-7.468,7.468c0,4.125,7.468,16.747,7.468,16.747s7.468-12.623,7.468-16.747A7.468,7.468,0,0,0-773.2,1887.112Zm-.1,11.138a4.094,4.094,0,0,1-4.094-4.094,4.094,4.094,0,0,1,4.094-4.094,4.094,4.094,0,0,1,4.094,4.094A4.094,4.094,0,0,1-773.3,1898.25Z" transform="translate(-134.661 4)" fill="#fd6f02"/>
      <path id="Path_28066" data-name="Path 28066" d="M-886.289,2132.294a1.565,1.565,0,0,0-.079-.489l-3.243-9.812a.824.824,0,0,0-.782-.565h-13.369c-1.045,2.594-2.072,5.012-2.836,6.781h5.5l.556,3.32h-14.64l.556-3.32h5.5c-.764-1.768-1.791-4.186-2.836-6.781h-13.371a.659.659,0,0,0-.624.448l-3.375,9.947a1.446,1.446,0,0,0-.077.454l-.033,4.894a.941.941,0,0,0,.941.948h41.3a.916.916,0,0,0,.916-.918Zm-30.7,4.214H-927.78v-3.32h10.789Zm.979-9.959H-925.8l1.1-3.32h9.237Zm15.769-3.32h9.213l1.1,3.32h-9.76Zm12.3,13.279h-10.789v-3.32h10.789Z" transform="translate(0 -212.091)" fill="#343434"/>
    </g>
  </g>
</svg>
