<svg xmlns="http://www.w3.org/2000/svg" xmlns:xlink="http://www.w3.org/1999/xlink" width="45" height="45" viewBox="0 0 45 45">
  <defs>
    <clipPath id="clip-path">
      <rect id="Rectangle_5674" data-name="Rectangle 5674" width="45" height="45" transform="translate(442 113)" fill="#fff" stroke="#707070" stroke-width="1"/>
    </clipPath>
  </defs>
  <g id="vacant_land" transform="translate(-442 -113)" clip-path="url(#clip-path)">
    <g id="Group_13249" data-name="Group 13249" transform="translate(350 69)">
      <path id="Path_27924" data-name="Path 27924" d="M136.908,83.408,131.07,69.382a1.116,1.116,0,0,0-1.016-.676h-9.728v4.915a4.379,4.379,0,1,1-8.756,0V68.706h-9.728a1.116,1.116,0,0,0-1.016.676L95.077,83.408a1.228,1.228,0,0,0,.089,1.037,1.087,1.087,0,0,0,.928.5h39.8a1.018,1.018,0,0,0,.885-.5,1,1,0,0,0,.132-1.038Z" transform="translate(-1.002 -0.386)" fill="#343434"/>
      <path id="Path_27925" data-name="Path 27925" d="M105.6,62.735h7.834v10.61a1.558,1.558,0,1,0,3.116,0V62.735h7.834a1.053,1.053,0,0,0,1.053-1.074V49.074A1.053,1.053,0,0,0,124.387,48H105.6a1.053,1.053,0,0,0-1.053,1.074V61.661a1.053,1.053,0,0,0,1.053,1.074Zm4.127-10.826h10.488a1.074,1.074,0,0,1,0,2.148H109.73a1.053,1.053,0,0,1-1.053-1.074A1.111,1.111,0,0,1,109.73,51.909Zm0,4.812h10.488a1.074,1.074,0,0,1,0,2.148H109.73a1.054,1.054,0,0,1-1.053-1.074A1.11,1.11,0,0,1,109.73,56.721Z" fill="#fd6f02"/>
    </g>
  </g>
</svg>
