<svg xmlns="http://www.w3.org/2000/svg" xmlns:xlink="http://www.w3.org/1999/xlink" width="45" height="45" viewBox="0 0 45 45">
  <defs>
    <clipPath id="clip-path">
      <rect id="Rectangle_5700" data-name="Rectangle 5700" width="45" height="45" transform="translate(442 113)" fill="#fff" stroke="#707070" stroke-width="1"/>
    </clipPath>
  </defs>
  <g id="village" transform="translate(-442 -113)" clip-path="url(#clip-path)">
    <g id="Group_13260" data-name="Group 13260" transform="translate(-713.794 -2663.768)">
      <g id="Group_13259" data-name="Group 13259" transform="translate(1158.294 2783.325)">
        <path id="Path_27970" data-name="Path 27970" d="M1171.662,2793.026a5.977,5.977,0,1,0-11.262-.309,7.595,7.595,0,0,0,5.063,12.832v-5.785l-.008,0a.269.269,0,0,1-.177-.066l-3.3-2.833a.272.272,0,0,1,.355-.413l3.131,2.687v-5.121a.234.234,0,0,1-.03-.017l-2.709-2.335a.272.272,0,0,1,.356-.413l2.383,2.054v-3.281a.272.272,0,0,1,.545,0v5.379l2.146-3.286a.273.273,0,0,1,.457.3l-2.522,3.861a.276.276,0,0,1-.081.078v4.383l3.441-2.979a.273.273,0,1,1,.357.412l-3.705,3.208a.3.3,0,0,1-.093.051v4.129a7.6,7.6,0,0,0,5.654-12.535Z" transform="translate(-1158.294 -2784.893)" fill="#fd6f02"/>
        <path id="Path_27971" data-name="Path 27971" d="M1172.908,2828.081a2.658,2.658,0,0,1-4.881-.958,2.66,2.66,0,0,0-2.656,2.548,4.105,4.105,0,0,0-5.922,5.05h7.625l5.97-.047,0-1.276h0v-5.311C1173,2828.085,1172.953,2828.081,1172.908,2828.081Zm-8.253,3.017c-1.473-.223-2.532-.025-3.148.585a2.382,2.382,0,0,0-.589,1.847.273.273,0,0,1-.232.308.253.253,0,0,1-.038,0,.272.272,0,0,1-.269-.233,2.9,2.9,0,0,1,.74-2.307c.745-.741,1.963-.99,3.617-.741a.273.273,0,0,1-.081.539Z" transform="translate(-1158.603 -2800.037)" fill="#343434"/>
        <path id="Path_27972" data-name="Path 27972" d="M1170.232,2823.679v-5.44h-1.806l.061,7.15A2.666,2.666,0,0,1,1170.232,2823.679Z" transform="translate(-1161.928 -2796.851)" fill="#343434"/>
      </g>
      <rect id="Rectangle_5688" data-name="Rectangle 5688" width="4.11" height="10.212" transform="translate(1173.728 2802.004)" fill="#343434"/>
      <rect id="Rectangle_5689" data-name="Rectangle 5689" width="0.934" height="10.212" transform="translate(1178.585 2802.004)" fill="#343434"/>
      <rect id="Rectangle_5690" data-name="Rectangle 5690" width="0.934" height="10.212" transform="translate(1185.03 2802.004)" fill="#343434"/>
      <rect id="Rectangle_5691" data-name="Rectangle 5691" width="0.934" height="10.212" transform="translate(1191.382 2802.004)" fill="#343434"/>
      <rect id="Rectangle_5692" data-name="Rectangle 5692" width="4.11" height="10.212" transform="translate(1180.329 2802.004)" fill="#343434"/>
      <rect id="Rectangle_5693" data-name="Rectangle 5693" width="4.11" height="10.212" transform="translate(1186.556 2802.004)" fill="#343434"/>
      <rect id="Rectangle_5694" data-name="Rectangle 5694" width="4.11" height="10.212" transform="translate(1192.908 2802.004)" fill="#343434"/>
      <path id="Path_27973" data-name="Path 27973" d="M1196.76,2805.6h-4.11v-3.145l1.993-2.833,2.117,2.833Z" transform="translate(-12.321 -6.851)" fill="#343434"/>
      <path id="Path_27974" data-name="Path 27974" d="M1206.468,2805.6h-4.11v-3.145l1.884-2.833,2.226,2.833Z" transform="translate(-15.802 -6.851)" fill="#343434"/>
      <path id="Path_27975" data-name="Path 27975" d="M1216.371,2805.6h-4.11v-3.145l2.024-2.833,2.086,2.833Z" transform="translate(-19.354 -6.851)" fill="#343434"/>
      <rect id="Rectangle_5695" data-name="Rectangle 5695" width="4.11" height="2.491" transform="translate(1173.728 2815.517)" fill="#343434"/>
      <rect id="Rectangle_5696" data-name="Rectangle 5696" width="4.11" height="2.491" transform="translate(1180.329 2815.517)" fill="#343434"/>
      <rect id="Rectangle_5697" data-name="Rectangle 5697" width="4.11" height="2.491" transform="translate(1186.556 2815.517)" fill="#343434"/>
      <rect id="Rectangle_5698" data-name="Rectangle 5698" width="4.11" height="2.491" transform="translate(1192.908 2815.517)" fill="#343434"/>
      <rect id="Rectangle_5699" data-name="Rectangle 5699" width="25.593" height="2.055" transform="translate(1172.701 2812.808)" fill="#343434"/>
      <path id="Path_27976" data-name="Path 27976" d="M1201.666,2784.358a1.9,1.9,0,0,0-1.506-1.56,1.931,1.931,0,0,0,.038-.378,1.9,1.9,0,0,0-3.8,0,1.919,1.919,0,0,0,.016.229,1.9,1.9,0,0,0-1.683,1.67h-.792a1.339,1.339,0,0,0,0,2.678h7.411a1.338,1.338,0,0,0,.316-2.639Z" transform="translate(-12.303)" fill="#343434"/>
      <path id="Path_27977" data-name="Path 27977" d="M1182.154,2809.793a7.9,7.9,0,0,1-1.19,2.055h25.46v-2.055Z" transform="translate(-8.13 -10.498)" fill="#343434"/>
      <path id="Path_27978" data-name="Path 27978" d="M1184.547,2799.623l-1.274,1.884a7.9,7.9,0,0,1-.152,4.094h3.621v-3.145Z" transform="translate(-8.903 -6.85)" fill="#343434"/>
    </g>
  </g>
</svg>
