<svg xmlns="http://www.w3.org/2000/svg" xmlns:xlink="http://www.w3.org/1999/xlink" width="45" height="45" viewBox="0 0 45 45">
  <defs>
    <clipPath id="clip-path">
      <rect id="Rectangle_5795" data-name="Rectangle 5795" width="45" height="45" transform="translate(442 113)" fill="#fff" stroke="#707070" stroke-width="1"/>
    </clipPath>
  </defs>
  <g id="Ward" transform="translate(-442 -113)" clip-path="url(#clip-path)">
    <g id="Group_13497" data-name="Group 13497" transform="translate(4449.697 -1576.95)">
      <path id="Path_28112" data-name="Path 28112" d="M-3966.974,1908.192a9.1,9.1,0,0,0-6.275,2.091l-6.875-1.644c0-.037,0-.074,0-.111,0-2.5-3.236-4.457-7.368-4.457s-7.368,1.958-7.368,4.457,3.236,4.457,7.368,4.457c2.95,0,5.444-1,6.628-2.48l6.577,1.573a2.891,2.891,0,0,0-.06.571,3.247,3.247,0,0,0,.956,2.225l-3.646,2.353a10.911,10.911,0,0,0-4.454-.883c-4.132,0-7.368,1.958-7.368,4.457s3.236,4.457,7.368,4.457,7.368-1.958,7.368-4.457a3.32,3.32,0,0,0-1.105-2.378l3.572-2.306a10.737,10.737,0,0,0,4.677.989c4.131,0,7.368-1.958,7.368-4.457S-3962.843,1908.192-3966.974,1908.192Zm-20.514,3.225c-3.418,0-5.8-1.522-5.8-2.889s2.382-2.889,5.8-2.889,5.8,1.523,5.8,2.889S-3984.07,1911.417-3987.488,1911.417Zm6,12.273c-3.418,0-5.8-1.523-5.8-2.889s2.382-2.889,5.8-2.889,5.8,1.523,5.8,2.889S-3978.068,1923.69-3981.486,1923.69Zm14.512-8.152c-3.418,0-5.8-1.522-5.8-2.889s2.382-2.889,5.8-2.889,5.8,1.522,5.8,2.889S-3963.556,1915.538-3966.974,1915.538Z" transform="translate(-6.554 -190.307)" fill="#343434"/>
      <path id="Path_28065" data-name="Path 28065" d="M-3993.951,1691.553a8.224,8.224,0,0,0-8.224,8.224h0c0,4.543,8.224,18.443,8.224,18.443s8.225-13.9,8.225-18.443a8.224,8.224,0,0,0-8.225-8.224Zm-.11,12.266a4.509,4.509,0,0,1-4.509-4.509,4.509,4.509,0,0,1,4.509-4.509,4.508,4.508,0,0,1,4.508,4.509A4.509,4.509,0,0,1-3994.061,1703.819Z" transform="translate(0)" fill="#fd6f02"/>
    </g>
  </g>
</svg>
