<svg xmlns="http://www.w3.org/2000/svg" xmlns:xlink="http://www.w3.org/1999/xlink" width="45" height="45" viewBox="0 0 45 45">
  <defs>
    <clipPath id="clip-path">
      <rect id="Rectangle_5779" data-name="Rectangle 5779" width="45" height="45" transform="translate(442 113)" fill="#fff" stroke="#707070" stroke-width="1"/>
    </clipPath>
  </defs>
  <g id="zone" transform="translate(-442 -113)" clip-path="url(#clip-path)">
    <g id="noun-area-3097463" transform="translate(334.907 101)">
      <path id="Path_28026" data-name="Path 28026" d="M160.025,276.08h-5.513c-.646,1.206-1.378,2.5-2.2,3.919a4.506,4.506,0,0,1-3.962,2.283A4.557,4.557,0,0,1,144.392,280c-.732-1.249-1.378-2.412-1.938-3.445a1.721,1.721,0,0,0-.3.56l-2.713,9.992,16.193-.646Z" transform="translate(-26.039 -241.925)" fill="#343434"/>
      <path id="Path_28027" data-name="Path 28027" d="M419.477,295.634l-4.867-18a1.332,1.332,0,0,0-1.292-.99h-4.823l-3.058,7.365,5.383,4.091a1.386,1.386,0,0,1,.517.861l1.421,8.484h5.426a1.438,1.438,0,0,0,1.077-.517,1.565,1.565,0,0,0,.216-1.292Z" transform="translate(-271.58 -242.442)" fill="#343434"/>
      <path id="Path_28028" data-name="Path 28028" d="M132.737,405.44l-.947,2.283a1.367,1.367,0,0,1-1.206.818l-17.916.732-1.378,5.254a1.25,1.25,0,0,0,.215,1.163,1.306,1.306,0,0,0,1.077.517h25.84l-1.249-7.494Z" transform="translate(0 -361.336)" fill="#343434"/>
      <path id="Path_28029" data-name="Path 28029" d="M161.365,36.739c2.325-4.048,6.417-11.542,6.417-14.729a8.01,8.01,0,1,0-16.021,0c0,3.144,4.048,10.638,6.417,14.729A1.823,1.823,0,0,0,161.365,36.739Zm-5.34-14.729a3.747,3.747,0,1,1,3.747,3.747A3.75,3.75,0,0,1,156.025,22.01Z" transform="translate(-37.413)" fill="#fd6f02"/>
    </g>
  </g>
</svg>
