<svg xmlns="http://www.w3.org/2000/svg" xmlns:xlink="http://www.w3.org/1999/xlink" width="30" height="30" viewBox="0 0 30 30">
  <defs>
    <clipPath id="clip-path">
      <rect id="Rectangle_30" data-name="Rectangle 30" width="30" height="30" transform="translate(101 467)" fill="#fff" stroke="#707070" stroke-width="1"/>
    </clipPath>
  </defs>
  <g id="notification" transform="translate(-101 -467)" clip-path="url(#clip-path)">
    <g id="Group_12" data-name="Group 12" transform="translate(104.297 468.42)">
      <path id="Path_17" data-name="Path 17" d="M426.318,530.051a3.965,3.965,0,0,1-1.633,2.674,3.811,3.811,0,0,1-2.271.721,3.976,3.976,0,0,1-3.861-3.41h-.38c-1.639,0-3.279,0-4.918,0a2.316,2.316,0,0,1-2.375-1.855,2.1,2.1,0,0,1,.764-2.233,4.763,4.763,0,0,0,1.693-2.754,18.015,18.015,0,0,0,.541-4.407,13.726,13.726,0,0,1,.4-3.7,7.643,7.643,0,0,1,4.714-5.1l.3-.121c.02-.009.037-.023.084-.05a2.816,2.816,0,0,1,.938-2.7,2.707,2.707,0,0,1,2.066-.658,2.8,2.8,0,0,1,2.512,3.305c.7.393,1.428.732,2.081,1.174a7.338,7.338,0,0,1,3.254,5.407c.152,1.243.129,2.506.214,3.757a12.337,12.337,0,0,0,.909,4.3,3.685,3.685,0,0,0,1.159,1.475,2.269,2.269,0,0,1,.8,2.6,2.337,2.337,0,0,1-2.227,1.575q-2.2,0-4.393,0Z" transform="translate(-410.822 -506.446)" fill="none" stroke="#949494" stroke-miterlimit="10" stroke-width="1.5"/>
      <line id="Line_7" data-name="Line 7" x2="9.018" transform="translate(11.629 18.399)" fill="none" stroke="#949494" stroke-linecap="round" stroke-linejoin="round" stroke-width="1.5"/>
      <circle id="Ellipse_14" data-name="Ellipse 14" cx="1.35" cy="1.35" r="1.35" transform="translate(4.958 16.946)" fill="#21b454"/>
    </g>
  </g>
</svg>
