<svg xmlns="http://www.w3.org/2000/svg" xmlns:xlink="http://www.w3.org/1999/xlink" width="30" height="30" viewBox="0 0 30 30">
  <defs>
    <clipPath id="clip-path">
      <rect id="Rectangle_27" data-name="Rectangle 27" width="30" height="30" transform="translate(120.286 176.286)" fill="#fff" stroke="#707070" stroke-width="1"/>
    </clipPath>
  </defs>
  <g id="settings" transform="translate(-120.286 -176.286)" clip-path="url(#clip-path)">
    <g id="Group_10" data-name="Group 10" transform="translate(122.286 178.286)">
      <path id="Path_12" data-name="Path 12" d="M220.49,273.631a6.872,6.872,0,0,1-.869-.473c-.32-.235-.594-.533-.894-.8a1.339,1.339,0,0,0-2.29.732c-.094.411-.173.825-.268,1.235a1.269,1.269,0,0,1-1.29,1.053c-.547.01-1.1.01-1.642,0a1.27,1.27,0,0,1-1.3-1.076c-.1-.422-.174-.847-.273-1.269a1.332,1.332,0,0,0-2.193-.747c-.325.269-.629.564-.943.846a1.283,1.283,0,0,1-1.742.149c-.473-.318-.933-.656-1.382-1.008a1.221,1.221,0,0,1-.392-1.5c.164-.412.362-.811.537-1.219a1.342,1.342,0,0,0-1.428-1.935c-.419.046-.838.089-1.259.133a1.251,1.251,0,0,1-1.325-.765c-.233-.6-.435-1.223-.606-1.847a1.219,1.219,0,0,1,.583-1.384c.377-.236.771-.442,1.153-.669a1.343,1.343,0,0,0,.01-2.394c-.353-.21-.714-.4-1.067-.614a1.256,1.256,0,0,1-.643-1.565c.162-.568.342-1.133.553-1.685a1.261,1.261,0,0,1,1.4-.8c.419.051.839.089,1.259.133a1.333,1.333,0,0,0,1.41-1.835c-.156-.4-.35-.791-.521-1.189a1.26,1.26,0,0,1,.41-1.7c.439-.344.891-.675,1.356-.983a1.26,1.26,0,0,1,1.635.127c.31.27.606.555.915.827a1.339,1.339,0,0,0,2.291-.73c.094-.411.173-.824.268-1.235a1.268,1.268,0,0,1,1.289-1.053q.821-.015,1.643,0a1.267,1.267,0,0,1,1.306,1.075c.1.422.174.847.273,1.269a1.331,1.331,0,0,0,2.193.749c.336-.275.645-.581.969-.869a1.276,1.276,0,0,1,1.717-.129c.473.317.933.655,1.38,1.008a1.22,1.22,0,0,1,.392,1.5c-.163.412-.362.811-.537,1.22a1.341,1.341,0,0,0,1.428,1.934l1.259-.132a1.248,1.248,0,0,1,1.326.765c.233.6.434,1.223.606,1.847a1.221,1.221,0,0,1-.584,1.383c-.376.237-.771.444-1.153.671a1.341,1.341,0,0,0-.01,2.392c.372.222.754.426,1.123.653a1.237,1.237,0,0,1,.6,1.493c-.163.568-.341,1.134-.55,1.687a1.267,1.267,0,0,1-1.446.826c-.408-.052-.817-.085-1.225-.128a1.334,1.334,0,0,0-1.41,1.835c.152.392.34.771.508,1.158a1.275,1.275,0,0,1-.423,1.75c-.43.338-.873.662-1.331.958A4.671,4.671,0,0,1,220.49,273.631Z" transform="translate(-200.881 -248.389)" fill="none" stroke="#949494" stroke-miterlimit="10" stroke-width="1.5"/>
      <path id="Path_13" data-name="Path 13" d="M217.274,257.892a6.056,6.056,0,1,0,4.363,4.477" transform="translate(-202.478 -250.121)" fill="none" stroke="#949494" stroke-miterlimit="10" stroke-width="1.5"/>
      <circle id="Ellipse_10" data-name="Ellipse 10" cx="1.358" cy="1.358" r="1.358" transform="translate(16.677 8.13)" fill="#21b454"/>
    </g>
  </g>
</svg>
