<svg xmlns="http://www.w3.org/2000/svg" xmlns:xlink="http://www.w3.org/1999/xlink" width="30" height="30" viewBox="0 0 30 30">
  <defs>
    <clipPath id="clip-path">
      <rect id="Rectangle_4900" data-name="Rectangle 4900" width="30" height="30" transform="translate(1883 4763)" fill="#fff" stroke="#707070" stroke-width="1.5"/>
    </clipPath>
  </defs>
  <g id="Finance_Accounting" data-name="Finance &amp; Accounting" transform="translate(-1883 -4763)" clip-path="url(#clip-path)">
    <g id="Group_12671" data-name="Group 12671" transform="translate(1615.143 4375.539)">
      <path id="Path_25069" data-name="Path 25069" d="M283.357,397.346v-7.334a.555.555,0,0,1,.559-.55H297.23l4.1,3.973v19.5a.554.554,0,0,1-.558.55h-7.31" transform="translate(-7.069)" fill="none" stroke="#aaa" stroke-linecap="round" stroke-miterlimit="10" stroke-width="1.5"/>
      <rect id="Rectangle_5035" data-name="Rectangle 5035" width="12.352" height="18.062" rx="1" transform="translate(270.857 398.399)" fill="none" stroke="#aaa" stroke-miterlimit="10" stroke-width="1.5"/>
      <path id="Path_25070" data-name="Path 25070" d="M313.571,389.461v4.291a.411.411,0,0,0,.411.411h4.43" transform="translate(-24.155)" fill="none" stroke="#aaa" stroke-miterlimit="10" stroke-width="1.5"/>
      <line id="Line_1860" data-name="Line 1860" x2="9.293" transform="translate(282.357 396.63)" fill="none" stroke="#aaa" stroke-linecap="round" stroke-miterlimit="10" stroke-width="1.5"/>
      <line id="Line_1861" data-name="Line 1861" x2="7.914" transform="translate(273.03 401.983)" fill="none" stroke="#aaa" stroke-linecap="round" stroke-miterlimit="10" stroke-width="1.5"/>
      <line id="Line_1862" data-name="Line 1862" x2="5.773" transform="translate(285.878 402.278)" fill="none" stroke="#aaa" stroke-linecap="round" stroke-miterlimit="10" stroke-width="1.5"/>
      <line id="Line_1863" data-name="Line 1863" x2="5.773" transform="translate(285.878 407.927)" fill="none" stroke="#aaa" stroke-linecap="round" stroke-miterlimit="10" stroke-width="1.5"/>
      <g id="Group_12667" data-name="Group 12667" transform="translate(274.694 403.984)">
        <line id="Line_1858" data-name="Line 1858" y2="1.933" transform="translate(2.416 0)" fill="none" stroke="#21b454" stroke-linecap="round" stroke-miterlimit="10" stroke-width="1.5"/>
        <line id="Line_1859" data-name="Line 1859" y2="1.873" transform="translate(2.416 8.728)" fill="none" stroke="#21b454" stroke-linecap="round" stroke-miterlimit="10" stroke-width="1.5"/>
        <g id="Group_12666" data-name="Group 12666" transform="translate(0 1.946)">
          <path id="Path_25052" data-name="Path 25052" d="M285.6,433.97c0,1.048-.914,1.8-2.27,1.8a2.386,2.386,0,0,1-2.408-1.407l.545-.316a1.808,1.808,0,0,0,1.863,1.114c.887,0,1.634-.393,1.634-1.191,0-1.723-3.841-.735-3.841-3.015a1.935,1.935,0,0,1,2.052-1.809l.1.009a2.241,2.241,0,0,1,2.155,1.268l-.524.3a1.656,1.656,0,0,0-1.622-.964c-.824,0-1.52.431-1.52,1.191C281.765,432.652,285.6,431.652,285.6,433.97Z" transform="translate(-280.927 -429.142)" fill="#f07a1a" stroke="#21b454" stroke-width="1"/>
        </g>
      </g>
    </g>
  </g>
</svg>
