<svg xmlns="http://www.w3.org/2000/svg" xmlns:xlink="http://www.w3.org/1999/xlink" width="30" height="30" viewBox="0 0 30 30">
  <defs>
    <clipPath id="clip-path">
      <rect id="Rectangle_4901" data-name="Rectangle 4901" width="30" height="30" transform="translate(2176 5319)" fill="#fff" stroke="#707070" stroke-width="1"/>
    </clipPath>
  </defs>
  <g id="Payroll" transform="translate(-2176 -5319)" clip-path="url(#clip-path)">
    <g id="Group_10954" data-name="Group 10954" transform="translate(2176.833 5322.333)">
      <path id="Path_24390" data-name="Path 24390" d="M11.789,23.09A11.3,11.3,0,1,1,20.472,4.565" transform="translate(-0.483 -0.489)" fill="none" stroke="#949494" stroke-miterlimit="10" stroke-width="1.5"/>
      <circle id="Ellipse_2204" data-name="Ellipse 2204" cx="4.45" cy="4.45" r="4.45" transform="translate(16.506 6.859)" fill="none" stroke="#21b454" stroke-miterlimit="10" stroke-width="1.5"/>
      <path id="Path_24391" data-name="Path 24391" d="M17,27.838l1.667-4.55a.925.925,0,0,1,.875-.608h9.25a.933.933,0,0,1,.833.6l1.733,4.558" transform="translate(-3.235 -4.188)" fill="none" stroke="#949494" stroke-linecap="round" stroke-linejoin="round" stroke-width="1.5"/>
      <g id="Group_4607" data-name="Group 4607" transform="translate(7.49 4.334)">
        <path id="Path_17355" data-name="Path 17355" d="M15.5,10.33a2.15,2.15,0,0,0-.517-1.392,3.217,3.217,0,0,0-2.5-1.108,2.8,2.8,0,0,0-3.017,2.5,2.8,2.8,0,0,0,3.017,2.5h.475a2.807,2.807,0,0,1,3.025,2.5,2.5,2.5,0,0,1-1.717,2.258,3.858,3.858,0,0,1-.625.183.833.833,0,0,0-.683.833v1.383" transform="translate(-9.47 -6.047)" fill="none" stroke="#949494" stroke-miterlimit="10" stroke-width="1.5"/>
        <path id="Path_17356" data-name="Path 17356" d="M10,16.84a2.183,2.183,0,0,0,.508,1.392,2.967,2.967,0,0,0,1.308.9" transform="translate(-9.558 -7.548)" fill="none" stroke="#949494" stroke-miterlimit="10" stroke-width="1.5"/>
        <line id="Line_730" data-name="Line 730" y2="9.725" transform="translate(3.308)" fill="none" stroke="#949494" stroke-miterlimit="10" stroke-width="1.5"/>
      </g>
    </g>
  </g>
</svg>
